<?xml version="1.0" encoding="utf-8"?>
<!-- Generator: Adobe Illustrator 27.5.0, SVG Export Plug-In . SVG Version: 6.00 Build 0)  -->
<svg version="1.1" xmlns="http://www.w3.org/2000/svg" xmlns:xlink="http://www.w3.org/1999/xlink" x="0px" y="0px"
	 viewBox="0 0 500 500" style="enable-background:new 0 0 500 500;" xml:space="preserve">
<g id="BACKGROUND">
	<rect style="fill:#FFFFFF;" width="500" height="500"/>
</g>
<g id="OBJECTS">
	<g>
		<path style="fill:#042A9D;" d="M104.753,409.711H72.369c-1.916,0-3.475-1.56-3.475-3.475v-52.142c0-1.916,1.559-3.475,3.475-3.475
			h32.385c2.209,0,4-1.791,4-4c0-2.209-1.791-4-4-4H72.369c-6.327,0-11.475,5.147-11.475,11.475v52.142
			c0,6.328,5.148,11.475,11.475,11.475h32.385c2.209,0,4-1.791,4-4C108.753,411.502,106.962,409.711,104.753,409.711z"/>
		<path style="fill:#FB7AE1;" d="M134.319,376.522l-14.799-13.356c-0.881-0.794-2.147-0.995-3.229-0.514
			c-1.083,0.481-1.781,1.556-1.781,2.741v9.356l-35.475,0.001c-2.209,0-4,1.791-4,4s1.791,4,4,4l35.475-0.001v9.356
			c0,1.185,0.698,2.26,1.781,2.741c0.391,0.174,0.806,0.259,1.218,0.259c0.729,0,1.448-0.266,2.01-0.772l14.799-13.356
			c0.63-0.569,0.99-1.379,0.99-2.228C135.31,377.9,134.95,377.091,134.319,376.522z"/>
	</g>
	<g>
		<path style="fill:#042A9D;" d="M427.632,342.619h-32.385c-2.209,0-4,1.791-4,4c0,2.209,1.791,4,4,4h32.385
			c1.916,0,3.475,1.559,3.475,3.475v52.142c0,1.916-1.559,3.475-3.475,3.475h-32.385c-2.209,0-4,1.791-4,4c0,2.209,1.791,4,4,4
			h32.385c6.327,0,11.475-5.147,11.475-11.475v-52.142C439.106,347.767,433.959,342.619,427.632,342.619z"/>
		<path style="fill:#FB7AE1;" d="M420.964,385.58c2.209,0,4-1.791,4-4c0-2.209-1.791-4-4-4H385.49v-9.357
			c0-1.186-0.698-2.26-1.781-2.741c-1.086-0.482-2.349-0.278-3.229,0.514l-14.8,13.356c-0.631,0.569-0.99,1.379-0.99,2.228
			c0,0.849,0.359,1.658,0.99,2.227l14.8,13.355c0.563,0.507,1.281,0.772,2.011,0.772c0.411,0,0.826-0.085,1.218-0.259
			c1.083-0.481,1.781-1.556,1.781-2.741v-9.355H420.964z"/>
	</g>
	<g>
		<path style="fill:#FB7AE1;" d="M71.455,274.755v4.12c0,1.828,1.482,3.31,3.31,3.31h28.903c1.828,0,3.31-1.482,3.31-3.31v-4.12
			c0-7.073-4.145-13.163-10.13-16.02c2.986-2.294,4.918-5.891,4.918-9.947c0-6.931-5.619-12.55-12.55-12.55
			s-12.55,5.619-12.55,12.55c0,4.056,1.933,7.653,4.918,9.947C75.6,261.593,71.455,267.682,71.455,274.755z"/>
		<path style="fill:#042A9D;" d="M151.682,256.243l-10.15-9.16c-1.174-1.059-2.86-1.327-4.305-0.685
			c-1.444,0.642-2.375,2.075-2.375,3.655v5.16h-24.068c-2.209,0-4,1.791-4,4c0,2.209,1.791,4,4,4h24.068v5.159
			c0,1.581,0.931,3.013,2.375,3.655c0.522,0.231,1.075,0.345,1.624,0.345c0.972,0,1.931-0.354,2.681-1.03l10.15-9.159
			c0.84-0.759,1.32-1.838,1.32-2.97S152.522,257.002,151.682,256.243z"/>
		<path style="fill:#042A9D;" d="M127.652,274.119c-1.971-1.001-4.378-0.209-5.375,1.762c-6.353,12.549-19.02,20.344-33.058,20.344
			c-20.412,0-37.018-16.603-37.018-37.009c0-20.412,16.606-37.018,37.018-37.018c14.039,0,26.705,7.796,33.058,20.344
			c0.998,1.97,3.405,2.761,5.375,1.762c1.971-0.998,2.76-3.404,1.762-5.376c-7.722-15.254-23.124-24.73-40.195-24.73
			c-24.823,0-45.018,20.195-45.018,45.018c0,24.818,20.195,45.009,45.018,45.009c17.071,0,32.473-9.477,40.195-24.73
			C130.412,277.523,129.623,275.116,127.652,274.119z"/>
	</g>
	<g>
		<path style="fill:#FB7AE1;" d="M393.022,274.755v4.12c0,1.828,1.482,3.31,3.31,3.31h28.903c1.828,0,3.31-1.482,3.31-3.31v-4.12
			c0-7.073-4.145-13.163-10.13-16.02c2.986-2.294,4.918-5.891,4.918-9.947c0-6.931-5.619-12.55-12.55-12.55
			c-6.931,0-12.55,5.619-12.55,12.55c0,4.056,1.933,7.653,4.918,9.947C397.167,261.593,393.022,267.682,393.022,274.755z"/>
		<path style="fill:#042A9D;" d="M389.216,263.213c2.209,0,4-1.791,4-4c0-2.209-1.791-4-4-4h-24.067v-5.16
			c0-1.581-0.931-3.013-2.375-3.655c-1.445-0.643-3.134-0.373-4.305,0.685l-10.15,9.16c-0.841,0.759-1.32,1.838-1.32,2.97
			s0.479,2.211,1.32,2.97l10.15,9.159c0.75,0.677,1.709,1.03,2.681,1.03c0.549,0,1.103-0.113,1.624-0.345
			c1.444-0.643,2.375-2.074,2.375-3.655v-5.159H389.216z"/>
		<path style="fill:#042A9D;" d="M410.78,214.198c-17.07,0-32.472,9.476-40.194,24.73c-0.998,1.971-0.209,4.378,1.762,5.376
			c1.969,0.996,4.378,0.209,5.375-1.762c6.354-12.548,19.021-20.344,33.058-20.344c20.411,0,37.018,16.606,37.018,37.018
			c0,20.406-16.607,37.009-37.018,37.009c-14.037,0-26.704-7.795-33.058-20.344c-0.997-1.971-3.405-2.764-5.375-1.762
			c-1.971,0.997-2.76,3.404-1.762,5.375c7.723,15.254,23.124,24.73,40.194,24.73c24.823,0,45.018-20.19,45.018-45.009
			C455.798,234.393,435.603,214.198,410.78,214.198z"/>
	</g>
	<g>
		<path style="fill:none;" d="M109.449,160.186l31.829,9.057l-0.001-74.111l-31.83-9.063v6.023c0,0.008,0.002,0.016,0.002,0.024
			V160.186z"/>
		<path style="fill:#FB7AE1;" d="M145.964,176.116c-1.256,0.849-2.716,1.288-4.195,1.288c-0.695,0-1.394-0.097-2.078-0.293
			l-23.068-6.564H85.569c-0.358,0-0.65-0.292-0.65-0.65v-22.58c0-2.209-1.791-4-4-4s-4,1.791-4,4v22.58c0,4.77,3.88,8.65,8.65,8.65
			h55.06c4.497,0,8.282-3.51,8.619-7.991c0.001-0.015-0.002-0.029-0.001-0.044c-0.002,0.023-0.001,0.047-0.003,0.069
			C149.008,172.879,147.815,174.866,145.964,176.116z"/>
		<path style="fill:#FB7AE1;" d="M109.449,160.186V92.116c0-0.008-0.002-0.016-0.002-0.024v68.095l31.831,9.057v-0.001
			L109.449,160.186z"/>
		<path style="fill:#FB7AE1;" d="M85.569,88.116c-4.77,0-8.65,3.88-8.65,8.65v22.58c0,2.209,1.791,4,4,4s4-1.791,4-4v-22.58
			c0-0.358,0.291-0.65,0.65-0.65h15.878v-8H85.569z"/>
		<path style="fill:#FB7AE1;" d="M86.971,137.331c2.209,0,4-1.791,4-4s-1.791-4-4-4H69.726v-9.356c0-1.186-0.698-2.26-1.781-2.741
			c-1.083-0.481-2.349-0.281-3.229,0.514l-14.799,13.356c-0.63,0.569-0.99,1.378-0.99,2.227c0,0.849,0.36,1.658,0.99,2.227
			l14.799,13.356c0.562,0.507,1.282,0.773,2.01,0.773c0.412,0,0.827-0.085,1.218-0.259c1.083-0.481,1.781-1.556,1.781-2.741v-9.356
			H86.971z"/>
		<path style="fill:#042A9D;" d="M149.277,94.776c0-3.346-2.243-6.322-5.455-7.237L111.026,78.2
			c-2.284-0.652-4.686-0.205-6.587,1.229c-1.901,1.434-2.992,3.62-2.992,5.998v2.69v8v64.43c0,3.352,2.25,6.328,5.465,7.237
			l9.711,2.763l23.068,6.564c0.684,0.197,1.383,0.293,2.078,0.293c1.479,0,2.939-0.439,4.195-1.288
			c1.851-1.25,3.043-3.237,3.279-5.536c0.002-0.022,0.001-0.046,0.003-0.069c0.016-0.206,0.03-0.423,0.03-0.625V94.776z
			 M109.447,160.186V92.091v-6.023l31.83,9.063l0.001,74.111v0.001L109.447,160.186z"/>
	</g>
	<g>
		<path style="fill:none;" d="M390.551,160.186V92.116c0-0.007,0.002-0.013,0.002-0.019v-6.028l-31.829,9.063v74.111
			L390.551,160.186z"/>
		<path style="fill:#FB7AE1;" d="M390.551,160.186l-31.827,9.056v0l31.829-9.057v-68.09c0,0.007-0.002,0.013-0.002,0.019V160.186z"
			/>
		<path style="fill:#FB7AE1;" d="M419.081,143.316c-2.209,0-4,1.791-4,4v22.58c0,0.358-0.292,0.65-0.65,0.65h-31.054l-23.079,6.567
			c-0.679,0.195-1.374,0.292-2.065,0.292c-1.478,0-2.939-0.439-4.198-1.289c-1.836-1.241-3.022-3.207-3.262-5.4
			c0.414,4.403,4.157,7.831,8.599,7.831h55.06c4.77,0,8.65-3.88,8.65-8.65v-22.58C423.081,145.107,421.29,143.316,419.081,143.316z"
			/>
		<path style="fill:#FB7AE1;" d="M350.752,170.556c0.002,0.026,0.007,0.05,0.009,0.076c-0.003-0.043-0.005-0.079-0.008-0.12
			C350.754,170.527,350.751,170.541,350.752,170.556z"/>
		<path style="fill:#FB7AE1;" d="M414.431,96.116c0.358,0,0.65,0.292,0.65,0.65v22.58c0,2.209,1.791,4,4,4c2.209,0,4-1.791,4-4
			v-22.58c0-4.77-3.881-8.65-8.65-8.65h-15.878v8H414.431z"/>
		<path style="fill:#FB7AE1;" d="M450.083,131.104l-14.8-13.356c-0.88-0.793-2.143-0.996-3.229-0.514
			c-1.083,0.481-1.781,1.556-1.781,2.741v9.356h-17.244c-2.209,0-4,1.791-4,4s1.791,4,4,4h17.244v9.356
			c0,1.186,0.698,2.26,1.781,2.741c0.392,0.174,0.807,0.259,1.218,0.259c0.73,0,1.448-0.266,2.011-0.773l14.8-13.356
			c0.631-0.569,0.99-1.378,0.99-2.227C451.073,132.481,450.714,131.672,450.083,131.104z"/>
		<path style="fill:#042A9D;" d="M354.034,176.115c1.259,0.85,2.721,1.289,4.198,1.289c0.691,0,1.387-0.096,2.065-0.292
			l23.079-6.567l9.704-2.761c3.222-0.91,5.472-3.887,5.472-7.239v-64.43v-8v-2.69c0-2.377-1.091-4.563-2.991-5.998
			c-1.901-1.434-4.301-1.882-6.584-1.229l-32.8,9.34c-3.212,0.914-5.454,3.891-5.454,7.237v75.11c0,0.185,0.012,0.391,0.029,0.627
			c0.003,0.041,0.005,0.076,0.008,0.12c0.001,0.012,0.001,0.021,0.002,0.033c0.002,0.017,0.006,0.034,0.008,0.051
			C351.012,172.908,352.198,174.874,354.034,176.115z M390.553,86.068v6.028v68.09l-31.829,9.057v0V95.132L390.553,86.068z"/>
	</g>
	<g>
		<path style="fill:#FB7AE1;" d="M229.872,401.806h41.56c4.712,0,8.531-3.819,8.531-8.531v-26.301c0-4.712-3.82-8.531-8.531-8.531
			h-29.596v-3.387c0-4.861,3.955-8.816,8.816-8.816c3.943,0,7.436,2.649,8.493,6.442c0.594,2.128,2.799,3.37,4.928,2.779
			c2.128-0.594,3.372-2.8,2.779-4.928c-2.018-7.238-8.68-12.294-16.2-12.294c-9.272,0-16.816,7.544-16.816,16.816v3.387h-3.964
			c-4.712,0-8.531,3.82-8.531,8.531v26.301C221.34,397.986,225.16,401.806,229.872,401.806z M251.557,370.804
			c3.563,0,6.452,2.888,6.452,6.452c0,2.372-1.284,4.439-3.191,5.56v5.04c0,1.801-1.46,3.261-3.261,3.261
			c-1.801,0-3.261-1.46-3.261-3.261v-5.04c-1.907-1.121-3.191-3.188-3.191-5.56C245.105,373.692,247.994,370.804,251.557,370.804z"
			/>
		<path style="fill:#FDFFFF;" d="M248.296,382.815v5.04c0,1.801,1.46,3.261,3.261,3.261c1.801,0,3.261-1.46,3.261-3.261v-5.04
			c1.907-1.121,3.191-3.188,3.191-5.56c0-3.563-2.888-6.452-6.452-6.452c-3.563,0-6.452,2.888-6.452,6.452
			C245.105,379.627,246.389,381.694,248.296,382.815z"/>
		<path style="fill:#042A9D;" d="M299.098,381.521c-2.209,0-4,1.791-4,4v25.096c0,1.916-1.559,3.475-3.475,3.475h-80.497
			c-1.916,0-3.475-1.559-3.475-3.475v-25.096c0-2.209-1.791-4-4-4s-4,1.791-4,4v25.096c0,6.327,5.147,11.475,11.475,11.475h80.497
			c6.327,0,11.475-5.147,11.475-11.475v-25.096C303.098,383.311,301.307,381.521,299.098,381.521z"/>
	</g>
	<g>
		<path style="fill:#FB7AE1;" d="M218.542,240.201c2.209,0,4-1.791,4-4c0-6.846,5.57-12.416,12.416-12.416
			c6.846,0,12.415,5.57,12.415,12.416v25.697h-10.197c-1.617,0-3.083,0.952-3.739,2.43c-0.657,1.478-0.382,3.203,0.701,4.403
			l14.197,15.732c0.776,0.86,1.88,1.351,3.038,1.351s2.262-0.49,3.038-1.351l14.197-15.732c1.083-1.2,1.358-2.926,0.701-4.403
			c-0.657-1.478-2.122-2.43-3.739-2.43h-10.197v-25.697c0-11.257-9.158-20.416-20.415-20.416c-11.257,0-20.416,9.159-20.416,20.416
			C214.542,238.41,216.333,240.201,218.542,240.201z"/>
		<path style="fill:#042A9D;" d="M288.535,245.075h-21.604c-2.209,0-4,1.791-4,4s1.791,4,4,4h21.604
			c0.415,0,0.753,0.338,0.753,0.753v40.057c0,0.415-0.338,0.753-0.753,0.753h-74.321c-0.415,0-0.753-0.338-0.753-0.753v-40.057
			c0-0.415,0.338-0.753,0.753-0.753h21.604c2.209,0,4-1.791,4-4s-1.791-4-4-4h-21.604c-4.826,0-8.753,3.927-8.753,8.753v40.057
			c0,4.826,3.927,8.753,8.753,8.753h74.321c4.826,0,8.753-3.927,8.753-8.753v-40.057
			C297.288,249.002,293.361,245.075,288.535,245.075z"/>
	</g>
	<g>
		<path style="fill:none;" d="M260.919,102.657c0-5.263-4.282-9.545-9.545-9.545s-9.544,4.282-9.544,9.545v3.58h19.089V102.657z"/>
		<path style="fill:#FB7AE1;" d="M229.413,152.067h43.923c4.98,0,9.016-4.037,9.016-9.016v-27.797c0-4.98-4.037-9.016-9.016-9.016
			h-4.417v-3.58c0-9.674-7.871-17.545-17.545-17.545c-9.674,0-17.544,7.871-17.544,17.545v3.58h-4.417
			c-4.98,0-9.016,4.037-9.016,9.016v27.797C220.396,148.031,224.433,152.067,229.413,152.067z M259.993,132.115
			c1.563,1.563,1.563,4.095,0,5.657c-0.78,0.781-1.805,1.171-2.828,1.171c-1.023,0-2.048-0.391-2.828-1.171l-2.963-2.963
			l-2.963,2.963c-0.781,0.781-1.805,1.171-2.829,1.171s-2.047-0.391-2.829-1.171c-1.562-1.563-1.562-4.095,0-5.657l2.962-2.962
			l-2.962-2.962c-1.562-1.563-1.562-4.095,0-5.657c1.563-1.562,4.095-1.562,5.657,0l2.963,2.963l2.963-2.963
			c1.561-1.562,4.096-1.562,5.656,0c1.563,1.563,1.563,4.095,0,5.657l-2.962,2.962L259.993,132.115z M241.83,102.657
			c0-5.263,4.282-9.545,9.544-9.545s9.545,4.282,9.545,9.545v3.58H241.83V102.657z"/>
		<path style="fill:#FDFFFF;" d="M259.993,120.533c-1.561-1.562-4.096-1.562-5.656,0l-2.963,2.963l-2.963-2.963
			c-1.563-1.562-4.095-1.562-5.657,0c-1.562,1.563-1.562,4.095,0,5.657l2.962,2.962l-2.962,2.962c-1.562,1.563-1.562,4.095,0,5.657
			c0.781,0.781,1.805,1.171,2.829,1.171s2.047-0.391,2.829-1.171l2.963-2.963l2.963,2.963c0.78,0.781,1.805,1.171,2.828,1.171
			c1.023,0,2.048-0.391,2.828-1.171c1.563-1.563,1.563-4.095,0-5.657l-2.962-2.962l2.962-2.962
			C261.556,124.627,261.556,122.095,259.993,120.533z"/>
		<path style="fill:#042A9D;" d="M299.098,130.772c-2.209,0-4,1.791-4,4v25.096c0,1.916-1.559,3.475-3.475,3.475h-80.497
			c-1.916,0-3.475-1.559-3.475-3.475v-25.096c0-2.209-1.791-4-4-4s-4,1.791-4,4v25.096c0,6.327,5.147,11.475,11.475,11.475h80.497
			c6.327,0,11.475-5.148,11.475-11.475v-25.096C303.098,132.563,301.307,130.772,299.098,130.772z"/>
	</g>
</g>
</svg>
