<?xml version="1.0" encoding="utf-8"?>
<!-- Generator: Adobe Illustrator 27.5.0, SVG Export Plug-In . SVG Version: 6.00 Build 0)  -->
<svg version="1.1" xmlns="http://www.w3.org/2000/svg" xmlns:xlink="http://www.w3.org/1999/xlink" x="0px" y="0px"
	 viewBox="0 0 3710 3710" style="enable-background:new 0 0 3710 3710;" xml:space="preserve">
<g id="Background">
	<g>
		<g>
			<rect style="fill:#FFFFFF;" width="3710" height="3710"/>
		</g>
	</g>
</g>
<g id="Illustration">
	<g>
		<path style="fill:#F4F7FA;" d="M2063.506,455.249c372.919,6.587,949.897,148.377,1115.973,512.753
			c58.004,127.263,54.077,314.354,46.224,688.535c-2.309,109.981-6.136,270.282-33.017,469.179
			c-55.84,413.171-93.853,694.443-237.722,858.224c-360.491,410.383-1662.671,398.525-2218.74-340.299
			c-303.338-403.033-350.004-976.362-72.637-1450.188C968.962,671.777,1564.255,446.43,2063.506,455.249z"/>
		<path style="opacity:0.3;fill:#BFC8D6;" d="M3106.568,1494.907l-8.058-106.185c-1.288-16.981-16.109-29.815-33.112-28.668
			l-62.286,4.202c-7.15-27.792-16.541-54.64-28.191-80.235l51.672-34.678c14.098-9.462,17.721-28.609,8.095-42.773l-60.269-88.672
			c-9.648-14.196-28.932-18.057-43.077-8.617l-52.364,34.948c-19.887-20.377-41.489-39.065-64.599-55.802l27.612-56.697
			c7.445-15.288,0.928-33.856-14.558-41.475l-97.036-47.747c-15.544-7.65-34.222-1.444-41.707,13.873l-27.805,56.878
			c-27.194-7.912-55.339-13.457-84.135-16.657l-4.84-63.786c-1.299-17.123-16.375-30.179-33.683-29.158l-108.46,6.396
			c-17.38,1.026-30.421,15.78-29.118,32.954l4.855,63.974c-28.243,6.676-55.533,15.622-81.564,26.828l-36.58-53.334
			c-9.863-14.384-29.602-18.334-44.091-8.819l-90.774,59.613c-14.545,9.551-18.305,28.979-8.392,43.383l36.703,53.346
			c-20.847,19.697-39.889,41.183-56.959,64.177l-58.728-28.369c-15.901-7.682-35.019-1.326-42.694,14.202l-48.051,97.217
			c-7.694,15.564-0.999,34.391,14.946,42.043l58.298,27.982c-7.956,27.322-13.405,55.617-16.42,84.568l-64.549,4.353
			c-17.671,1.194-30.94,16.202-29.625,33.527l8.221,108.332c1.314,17.323,16.712,30.355,34.378,29.113l64.023-4.506
			c7.219,28.41,16.816,55.816,28.732,81.93l-52.671,35.153c-14.624,9.76-18.406,29.308-8.443,43.655l62.228,89.617
			c9.94,14.315,29.818,17.981,44.395,8.199l52.257-35.068c20.508,20.766,42.837,39.689,66.677,56.593l-27.312,55.869
			c-7.635,15.614-0.98,34.324,14.854,41.781l98.832,46.545c15.775,7.43,34.712,0.811,42.301-14.775l26.953-55.345
			c27.888,7.722,56.722,12.932,86.171,15.71l4.642,61.179c1.304,17.174,16.438,29.988,33.792,28.62l108.297-8.543
			c17.281-1.365,30.228-16.353,28.928-33.476l-4.628-60.998c28.489-7.237,55.953-16.757,82.061-28.583l34.574,50.245
			c9.722,14.13,29.14,17.714,43.369,8.013l88.815-60.558c14.177-9.666,17.822-28.933,8.145-43.04l-34.67-50.553
			c20.531-20.033,39.275-41.786,55.965-65.044l55.419,26.598c15.421,7.402,33.921,0.937,41.328-14.434l46.253-96.015
			c7.388-15.335,0.912-33.787-14.468-41.217l-55.529-26.825c7.561-27.077,12.712-55.072,15.437-83.706l61.777-4.35
			C3095.127,1526.619,3107.855,1511.886,3106.568,1494.907z M2551.554,1796.413c-175.469,13.052-329.209-117.473-342.424-291.609
			c-13.213-174.138,119.219-324.396,294.833-335.549c174.556-11.087,325.89,119.605,338.959,291.851
			C2855.992,1633.348,2725.967,1783.44,2551.554,1796.413z"/>
		<g>
			<g>
				<g>
					<defs>
						<path id="SVGID_1_" d="M2073.786,2580.84c-87.732-82.329-203.496-216.04-255.88-405.099
							c-68.7-247.949,31.974-373.247,20.621-793.033c-7.178-265.427-14.862-450.59-148.676-549.629
							c-104.863-77.612-274.629-93.042-377.66-21.104c-85.667,59.815-135.228,187.035-150.351,277.845
							c-12.325,74.01-2.426,127.747-45.089,166.734c-43.6,39.843-90.667,17.287-131.435,46.797
							c-82.677,59.847-34.805,258.086-27.068,290.125c86.067,356.399,414.458,596.766,558.967,699.89
							C1636.699,2378.634,1821.536,2492.255,2073.786,2580.84z"/>
					</defs>
					
						<linearGradient id="SVGID_00000135682512918948281330000016479391041762594440_" gradientUnits="userSpaceOnUse" x1="937.4567" y1="1673.2277" x2="2073.7864" y2="1673.2277">
						<stop  offset="0" style="stop-color:#FF9085"/>
						<stop  offset="1" style="stop-color:#FB6FBB"/>
					</linearGradient>
					
						<use xlink:href="#SVGID_1_"  style="overflow:visible;fill:url(#SVGID_00000135682512918948281330000016479391041762594440_);"/>
					<clipPath id="SVGID_00000076602411957497355400000011308798622931699632_">
						<use xlink:href="#SVGID_1_"  style="overflow:visible;"/>
					</clipPath>
					<g style="opacity:0.5;clip-path:url(#SVGID_00000076602411957497355400000011308798622931699632_);">
						<path style="fill:#FFFFFF;" d="M2174.121,2646.493c-152.955-58.122-284.604-127.458-391.288-206.078
							c-157.918-116.378-256.275-250.072-292.338-397.373c-28.205-115.187-17.745-240.026-4.501-398.078
							c10.983-131.041,30.565-222.829,47.841-303.816c22.391-104.956,40.077-187.857,27.805-307.724
							c-12.47-121.778-52.644-242.877-119.407-359.94l5.973-3.405c67.241,117.9,107.706,239.909,120.273,362.646
							c12.384,120.941-5.402,204.309-27.92,309.856c-17.234,80.785-36.768,172.352-47.712,302.939
							c-13.709,163.599-23.614,281.79,4.324,395.886c35.67,145.693,133.154,278.077,289.739,393.475
							c106.18,78.247,237.278,147.285,389.653,205.185L2174.121,2646.493z"/>
						<path style="fill:#FFFFFF;" d="M1497.653,1553.098l-1.11-3.724c-70.573-236.894-197.266-385.152-291.123-467.811
							c-101.726-89.589-187.884-123.587-188.742-123.92l2.484-6.413c0.868,0.336,87.947,34.656,190.553,124.954
							c94.118,82.827,220.972,231.018,292.276,467.418c17.038-8.139,93.017-46.955,169.043-125.266
							c79.177-81.558,174.628-223.913,179.717-438.953l6.873,0.161c-5.142,217.4-101.735,361.33-181.86,443.791
							c-86.816,89.347-173.685,127.831-174.551,128.211L1497.653,1553.098z"/>
						<path style="fill:#FFFFFF;" d="M1477.809,1906.763l-2.397-0.702c-115.291-33.841-246.152-166.543-388.951-394.432
							c-106.152-169.404-179.502-331.002-180.23-332.613l6.265-2.834c0.727,1.612,73.918,162.847,179.833,331.861
							c96.984,154.762,241.873,347.705,382.647,390.709c11.713-16.828,93.547-132.579,196.905-233.993
							c111.755-109.653,371.885-147.523,374.5-147.892l0.96,6.809c-2.592,0.366-260.505,37.923-370.646,145.992
							c-110.699,108.616-196.622,233.781-197.476,235.033L1477.809,1906.763z"/>
						<path style="fill:#FFFFFF;" d="M1740.038,2408.24l-6.804-0.809c-1.289-0.155-130.93-16.032-300.26-75.074
							c-156.318-54.503-379.478-158.002-554.908-341.544l-338.689-354.363l4.972-4.754l338.689,354.363
							c174.484,182.559,396.596,285.551,552.199,339.805c146.677,51.142,263.294,69.746,292.016,73.825
							c-36.281-65.68-49.389-134.23-38.969-203.865c8.579-57.313,33.031-115.425,72.682-172.721
							c67.352-97.321,156.603-159.496,157.497-160.114l3.908,5.661c-0.886,0.611-89.233,62.181-155.855,158.519
							c-39.008,56.406-63.046,113.525-71.445,169.77c-10.479,70.169,3.5,139.26,41.549,205.363L1740.038,2408.24z"/>
					</g>
				</g>
			</g>
			<g>
				<g>
					<defs>
						<path id="SVGID_00000179634026945544090380000012494117432282814135_" d="M1602.566,2575.031
							c-189.952,1.624-432.164-23.409-664.288-127.903c-59.238-26.667-425.185-191.404-382.297-358.018
							c15.108-58.69,68.185-68.048,89.755-146.164c25.559-92.561-32.603-138.67-73.068-253.899
							c-24.145-68.757-94.807-269.974,25.62-381.669c71.964-66.745,208.909-98.504,313.232-74.345
							c153.02,35.435,205.872,184.226,290.944,437.531c75.413,224.545,56.238,279.731,113.364,440.476
							C1358.226,2230.339,1437.951,2394.553,1602.566,2575.031z"/>
					</defs>
					
						<linearGradient id="SVGID_00000122688510250703648710000015628420672402090404_" gradientUnits="userSpaceOnUse" x1="1305.8844" y1="1358.9325" x2="975.2452" y2="2246.439">
						<stop  offset="0" style="stop-color:#FFC444"/>
						<stop  offset="0.9964" style="stop-color:#F36F56"/>
					</linearGradient>
					
						<use xlink:href="#SVGID_00000179634026945544090380000012494117432282814135_"  style="overflow:visible;fill:url(#SVGID_00000122688510250703648710000015628420672402090404_);"/>
					<clipPath id="SVGID_00000080185354483732327610000011517940054822249359_">
						<use xlink:href="#SVGID_00000179634026945544090380000012494117432282814135_"  style="overflow:visible;"/>
					</clipPath>
					<g style="opacity:0.5;clip-path:url(#SVGID_00000080185354483732327610000011517940054822249359_);">
						<path style="fill:#FFFFFF;" d="M2077.797,2676.835c-90.747,0.003-179.715-10.371-266.455-31.131
							c-256.433-61.386-478.964-214.432-661.412-454.895c-189.663-249.968-288.517-531.859-338.048-724.319
							c-34.509-134.089-28.198-282.509,18.757-441.135l6.594,1.954c-46.597,157.414-52.886,304.598-18.693,437.469
							c49.374,191.846,147.894,472.817,336.867,721.878c181.463,239.16,402.69,391.356,657.536,452.359
							c191.307,45.79,393.739,40.737,601.674-15.025l1.78,6.641C2301.576,2661.424,2188.374,2676.832,2077.797,2676.835z"/>
						<path style="fill:#FFFFFF;" d="M948.419,1846.214l-2.599-1.672c-409.935-264.09-406.303-568.654-395.426-655.708
							c0.217-1.723,0.368-2.837,0.379-3.317l6.876-0.047c0.007,0.665-0.106,1.602-0.431,4.217
							c-10.729,85.859-14.186,385.86,389.688,647.371c9.831-12.785,55.832-74.893,93.742-164.667
							c39.13-92.668,77.406-234.644,37.529-384.782l6.645-1.766c40.398,152.092,1.677,295.711-37.92,389.412
							c-42.86,101.427-96.012,167.893-96.544,168.554L948.419,1846.214z"/>
						<path style="fill:#FFFFFF;" d="M994.107,2199.976c-163.223,0-277.308-42.577-349.413-83.7
							c-52.844-30.14-89.256-62.722-110.498-84.751c-23.096-23.949-33.53-40.559-33.963-41.254l5.837-3.636
							c0.415,0.665,42.565,67.047,142.421,123.89c166.29,94.662,362.611,90.925,498.68,70.907
							c9.628-21.445,106.536-246.258,83.394-547.025l-24.579-319.459l6.856-0.53l24.579,319.458
							c24.367,316.702-83.695,549.832-84.789,552.148l-0.786,1.662l-1.816,0.272
							C1093.741,2196.336,1041.82,2199.976,994.107,2199.976z"/>
					</g>
				</g>
			</g>
		</g>
		<g>
			<g>
				<g>
					<path style="fill:#BFC8D6;" d="M3153.848,2989.91l-2536.311-21.924v64.868c0,17.606,11.062,32.577,26.044,35.245
						l717.193,127.736c8.511,1.516,17.143,1.918,25.731,1.199l1739.78-145.64c15.532-1.3,27.562-16.318,27.562-34.407V2989.91z"/>
					<g>
						<path style="fill:#BFC8D6;" d="M2220.482,2885.957l-1612.03,118.668c-28.846,2.123-52.3-20.44-52.3-50.403V1753.789
							c0-29.963,23.454-54.253,52.3-54.253l57.03,32.87l1555.001-32.87c23.765,0,42.98,21.957,42.98,49.044v1085.169
							C2263.462,2860.835,2244.247,2884.207,2220.482,2885.957z"/>
						<path style="fill:#FFFFFF;" d="M2246.186,2885.957l-1612.03,118.668c-28.847,2.123-52.301-20.44-52.301-50.403V1753.789
							c0-29.963,23.454-54.253,52.301-54.253h1612.03c23.766,0,42.98,21.957,42.98,49.044v1085.169
							C2289.166,2860.835,2269.951,2884.207,2246.186,2885.957z"/>
						<path style="fill:#D8DEE8;" d="M2195.967,2809.451L694.529,2912.53c-23.474,1.611-42.551-16.908-42.551-41.369V1820.18
							c0-24.461,19.076-44.373,42.551-44.474l1501.438-6.473c19.604-0.085,35.462,17.908,35.462,40.188v957.255
							C2231.429,2788.955,2215.571,2808.105,2195.967,2809.451z"/>
						<path style="fill:#FFFFFF;" d="M1497.103,1732.37c0,11.154-8.297,20.223-18.543,20.255
							c-10.259,0.033-18.583-9.004-18.583-20.183s8.325-20.248,18.583-20.256C1488.806,1712.179,1497.103,1721.216,1497.103,1732.37
							z"/>
						<path style="opacity:0.48;fill:#FFFFFF;" d="M634.15,3004.625l1603.875-118.068l8.162-0.601
							c10.904-0.803,20.819-6.193,28.392-14.369c-115.417-6.316-187.104-47.275-233.347-89.596
							c-92.867-84.991-76.759-168.805-176.905-224.685c-124.909-69.699-223.125,18.618-317.911-68.52
							c-57.464-52.829-29.252-92.224-99.961-171.171c-78.316-87.44-129.304-58.047-208.011-136.744
							c-99.518-99.507-49.745-176.925-135.468-248.368c-103.994-86.671-216.147-6.452-315.141-89.571
							c-42.697-35.85-66.126-87.969-78.359-143.398h-75.318c-28.847,0-52.301,24.29-52.301,54.253v1200.433
							C581.855,2984.183,605.305,3006.744,634.15,3004.625z"/>
					</g>
					
						<linearGradient id="SVGID_00000129886532642898092290000016652587108743083160_" gradientUnits="userSpaceOnUse" x1="617.5373" y1="3008.6155" x2="3153.8484" y2="3008.6155">
						<stop  offset="0.494" style="stop-color:#EBEFF2"/>
						<stop  offset="1" style="stop-color:#FFFFFF"/>
					</linearGradient>
					<path style="fill:url(#SVGID_00000129886532642898092290000016652587108743083160_);" d="M2322.138,2879.375l-1704.601,124.91
						l743.238,132.375c8.511,1.516,17.143,1.918,25.731,1.199l1767.342-147.948l-804.595-109.687
						C2340.255,2878.997,2331.18,2878.712,2322.138,2879.375z"/>
					<polygon style="fill:#D8DEE8;" points="866.265,3005.358 2285.396,2899.818 2724.604,2959.211 1317.699,3072.029 					"/>
				</g>
			</g>
			<path style="fill:#FFFFFF;" d="M1354.434,2515.596v-354.478c0-22.755,19.268-36.96,35.913-26.512l296.852,186.343
				c18.515,11.623,18.515,44.541,0,55.038l-296.852,168.303C1373.702,2553.728,1354.434,2538.352,1354.434,2515.596z"/>
		</g>
		<g>
			
				<linearGradient id="SVGID_00000121256587982773138880000014604624070871246475_" gradientUnits="userSpaceOnUse" x1="1838.6328" y1="1930.9132" x2="589.4547" y2="2604.7813">
				<stop  offset="0" style="stop-color:#444B8C"/>
				<stop  offset="0.9964" style="stop-color:#26264F"/>
			</linearGradient>
			<path style="fill:url(#SVGID_00000121256587982773138880000014604624070871246475_);" d="M865.087,2651.976
				c-55.834,2.071-101.454-43.462-101.454-101.506V1444.664c0-58.045,45.62-104.418,101.454-103.377l1839.229,34.3
				c47.228,0.881,85.498,44.767,85.498,97.833v1010.948c0,53.065-38.271,97.657-85.498,99.409L865.087,2651.976z"/>
			<g>
				<g>
					
						<linearGradient id="SVGID_00000100357435406967199730000017790687217538496642_" gradientUnits="userSpaceOnUse" x1="1621.1952" y1="1438.8295" x2="2468.6956" y2="4162.2505">
						<stop  offset="0" style="stop-color:#444B8C"/>
						<stop  offset="0.9964" style="stop-color:#26264F"/>
					</linearGradient>
					<path style="fill:url(#SVGID_00000100357435406967199730000017790687217538496642_);" d="M887.889,2651.976
						c-55.834,2.071-101.454-43.462-101.454-101.506V1444.664c0-58.045,45.62-104.418,101.454-103.377l1839.229,34.3
						c47.228,0.881,85.498,44.767,85.498,97.833v1010.948c0,53.065-38.271,97.657-85.498,99.409L887.889,2651.976z"/>
					
						<linearGradient id="SVGID_00000049926158054475197120000001750757650321085342_" gradientUnits="userSpaceOnUse" x1="1630.6708" y1="1459.384" x2="2446.4561" y2="4080.8892">
						<stop  offset="0" style="stop-color:#AA80F9"/>
						<stop  offset="0.9964" style="stop-color:#6165D7"/>
					</linearGradient>
					<path style="fill:url(#SVGID_00000049926158054475197120000001750757650321085342_);" d="M2727.118,1406.91l-1839.23-31.642
						c-36.596-0.63-66.347,30.661-66.347,69.895v1104.162c0,39.234,29.751,69.976,66.347,68.672l1839.23-65.542
						c31.004-1.105,56.073-31.156,56.073-67.126V1473.003C2783.191,1437.032,2758.122,1407.443,2727.118,1406.91z"/>
				</g>
				<g>
					<defs>
						<path id="SVGID_00000152231223263514275050000002844282151035820431_" d="M2726.712,1405.079L887.51,1373.501
							c-36.596-0.628-66.346,30.664-66.346,69.897v1104.154c0,39.233,29.75,69.975,66.346,68.669l1839.202-65.606
							c31.003-1.106,56.072-31.157,56.072-67.128V1471.169C2782.783,1435.199,2757.715,1405.611,2726.712,1405.079z"/>
					</defs>
					<clipPath id="SVGID_00000075151123405878730580000004872315877280465554_">
						<use xlink:href="#SVGID_00000152231223263514275050000002844282151035820431_"  style="overflow:visible;"/>
					</clipPath>
					
						<linearGradient id="SVGID_00000029045815074979854540000011551380157531029126_" gradientUnits="userSpaceOnUse" x1="2962.2415" y1="245.4723" x2="2417.3013" y2="2619.8542">
						<stop  offset="0.0036" style="stop-color:#E38DDD"/>
						<stop  offset="1" style="stop-color:#9571F6"/>
					</linearGradient>
					
						<path style="opacity:0.4;clip-path:url(#SVGID_00000075151123405878730580000004872315877280465554_);fill:url(#SVGID_00000029045815074979854540000011551380157531029126_);" d="
						M2266.454,1107.187c-9.829,2.669-213.292,405.224,0,562.04c215.055,158.112-98.905,246.89,198.945,346.429
						c301.286,100.687,129.161,303.971-64.342,240.43c-192.078-63.073-335.211-77.898-293.942,131.04
						c41.334,209.27-234.039,273.679-110.958,331.54c123.669,58.137,858.649,1.105,871.729,1.122
						c13.087,0.017,192.152-540.848,191.274-593.309C3058.283,2074.018,3025.358,901.135,2266.454,1107.187z"/>
					
						<linearGradient id="SVGID_00000054259670592437826060000013526050744106315168_" gradientUnits="userSpaceOnUse" x1="1648.4856" y1="313.0406" x2="1113.406" y2="2644.4585">
						<stop  offset="0.0036" style="stop-color:#E38DDD"/>
						<stop  offset="1" style="stop-color:#9571F6"/>
					</linearGradient>
					
						<path style="opacity:0.4;clip-path:url(#SVGID_00000075151123405878730580000004872315877280465554_);fill:url(#SVGID_00000054259670592437826060000013526050744106315168_);" d="
						M1498.007,1241.382c0,0,624.637,298.492,285.316,411.367c-334.914,111.409-464.316,62.911-425.94,154.245
						c38.434,91.471,274.396,81.615,484.227,88.11c211.551,6.548,213.379,112.682,41.82,159.704
						c-170.427,46.711-242.292,155.983-192.321,235.415c50.069,79.586,191.412,312.792,37.543,349.739
						c-152.956,36.728-230.645-567.969-496.11-577.629c-262.73-9.561-642.81,135.599-660.767-139.233
						c-17.944-274.636,174.123-673.569,186.176-661.358C770.01,1273.959,1498.007,1241.382,1498.007,1241.382z"/>
					
						<linearGradient id="SVGID_00000012449623708869610000000013962392161308268721_" gradientUnits="userSpaceOnUse" x1="2099.2285" y1="1658.4694" x2="2080.198" y2="1913.9186">
						<stop  offset="0.0036" style="stop-color:#E38DDD"/>
						<stop  offset="1" style="stop-color:#9571F6"/>
					</linearGradient>
					
						<path style="opacity:0.4;clip-path:url(#SVGID_00000075151123405878730580000004872315877280465554_);fill:url(#SVGID_00000012449623708869610000000013962392161308268721_);" d="
						M2110.292,1659.293c0,0-166.28,14.417-110.972,88.889c55.427,74.631-4.971,82.024,49.765,142.271
						c54.853,60.374,91.409-4.566,129.611-58.336C2216.954,1778.267,2196.224,1688.294,2110.292,1659.293z"/>
					<g style="clip-path:url(#SVGID_00000075151123405878730580000004872315877280465554_);">
						<path style="fill:#FFFFFF;" d="M2408.386,1576.999c0,23.24-19.065,42.159-42.591,42.256
							c-23.534,0.097-42.618-18.677-42.618-41.933s19.084-42.174,42.618-42.256
							C2389.321,1534.984,2408.386,1553.759,2408.386,1576.999z"/>
						<path style="fill:#FFFFFF;" d="M2532.883,1576.527c0,23.219-19.029,42.119-42.51,42.216
							c-23.49,0.097-42.538-18.66-42.538-41.893c0-23.234,19.048-42.134,42.538-42.216
							C2513.854,1534.552,2532.883,1553.309,2532.883,1576.527z"/>
						<path style="fill:#FFFFFF;" d="M2657.145,1576.056c0,23.196-18.993,42.079-42.43,42.175
							c-23.445,0.096-42.457-18.642-42.457-41.854s19.012-42.094,42.457-42.176
							C2638.152,1534.121,2657.145,1552.859,2657.145,1576.056z"/>
					</g>
					<g style="opacity:0.6;clip-path:url(#SVGID_00000075151123405878730580000004872315877280465554_);">
						<g>
							<polygon style="fill:#FFFFFF;" points="3137.471,1763.189 538.887,1776.8 538.887,1767.431 3137.471,1754.003 							"/>
						</g>
						<g>
							<polygon style="fill:#FFFFFF;" points="3137.471,2017.334 538.887,2036 538.887,2026.631 3137.471,2008.148 							"/>
						</g>
						<g>
							<polygon style="fill:#FFFFFF;" points="3137.471,2271.479 538.887,2295.199 538.887,2285.831 3137.471,2262.293 							"/>
						</g>
						<g>
							<polygon style="fill:#FFFFFF;" points="1541.484,2670.354 1532.162,2670.467 1532.162,1266.419 1541.484,1266.41 							"/>
						</g>
						<g>
							<polygon style="fill:#FFFFFF;" points="1923.499,2665.789 1914.037,2665.903 1914.037,1265.773 1923.499,1265.758 							"/>
						</g>
						<g>
							<polygon style="fill:#FFFFFF;" points="2298.439,2661.262 2288.839,2661.377 2288.839,1265.262 2298.439,1265.242 							"/>
						</g>
						<g>
							<polygon style="fill:#FFFFFF;" points="2672.362,2656.776 2662.624,2656.891 2662.624,1264.725 2672.362,1264.7 							"/>
						</g>
						<g>
							<polygon style="fill:#FFFFFF;" points="1177.328,2674.773 1165.074,2674.884 1165.074,1266.937 1177.328,1266.849 							"/>
						</g>
					</g>
					<g style="clip-path:url(#SVGID_00000075151123405878730580000004872315877280465554_);">
						<polygon style="fill:#FFFFFF;" points="1098.631,1614.951 1461.955,1614.794 1461.955,1544.655 1098.632,1541.469 						"/>
						
							<linearGradient id="SVGID_00000023283026420642092760000010518243866040587708_" gradientUnits="userSpaceOnUse" x1="1323.1372" y1="1011.441" x2="1278.3979" y2="1611.9764">
							<stop  offset="0" style="stop-color:#FF9085"/>
							<stop  offset="1" style="stop-color:#FB6FBB"/>
						</linearGradient>
						<polygon style="fill:url(#SVGID_00000023283026420642092760000010518243866040587708_);" points="1449.185,1601.948 
							1449.184,1557.395 1112.602,1555.01 1112.602,1601.527 						"/>
						<polygon style="fill:#FFFFFF;" points="1023.292,1614.946 1172.576,1614.882 1120.96,1509.458 1023.292,1508.206 						"/>
						
							<linearGradient id="SVGID_00000153695911697755183740000018055865264795196054_" gradientUnits="userSpaceOnUse" x1="1135.0428" y1="1012.9536" x2="1091.3417" y2="1599.5564">
							<stop  offset="0" style="stop-color:#FF9085"/>
							<stop  offset="1" style="stop-color:#FB6FBB"/>
						</linearGradient>
						<polygon style="fill:url(#SVGID_00000153695911697755183740000018055865264795196054_);" points="1150.792,1601.537 
							1112.15,1522.764 1037.526,1521.933 1037.526,1601.395 						"/>
						<polygon style="fill:#FFFFFF;" points="1416.638,1595.131 1439.791,1595.181 1439.791,1564.084 1416.638,1563.941 						"/>
						<polygon style="fill:#FFFFFF;" points="1385.038,1595.064 1408.381,1595.114 1408.381,1563.889 1385.038,1563.745 						"/>
						<polygon style="fill:#FFFFFF;" points="1353.175,1594.996 1376.713,1595.046 1376.713,1563.693 1353.175,1563.547 						"/>
						<polygon style="fill:#FFFFFF;" points="1321.049,1594.927 1344.782,1594.978 1344.782,1563.495 1321.049,1563.348 						"/>
						
							<linearGradient id="SVGID_00000111875402689952455660000013250757473167856050_" gradientUnits="userSpaceOnUse" x1="4638.9653" y1="1788.6858" x2="4704.9419" y2="2189.3748" gradientTransform="matrix(-1 0 0 1 5905.063 0)">
							<stop  offset="0" style="stop-color:#FF9085"/>
							<stop  offset="1" style="stop-color:#FB6FBB"/>
						</linearGradient>
						<polygon style="opacity:0.9;fill:url(#SVGID_00000111875402689952455660000013250757473167856050_);" points="
							1288.654,1594.858 1312.585,1594.909 1312.585,1563.295 1288.654,1563.147 						"/>
						
							<linearGradient id="SVGID_00000098194395070427418400000003494571660027020212_" gradientUnits="userSpaceOnUse" x1="4670.9697" y1="1785.1379" x2="4737.3701" y2="2188.4006" gradientTransform="matrix(-1 0 0 1 5905.063 0)">
							<stop  offset="0" style="stop-color:#FF9085"/>
							<stop  offset="1" style="stop-color:#FB6FBB"/>
						</linearGradient>
						<polygon style="opacity:0.9;fill:url(#SVGID_00000098194395070427418400000003494571660027020212_);" points="
							1255.987,1594.788 1280.119,1594.84 1280.119,1563.094 1255.987,1562.944 						"/>
						
							<linearGradient id="SVGID_00000058566189882581507020000006363278815145998240_" gradientUnits="userSpaceOnUse" x1="4703.2422" y1="1781.556" x2="4770.0708" y2="2187.4185" gradientTransform="matrix(-1 0 0 1 5905.063 0)">
							<stop  offset="0" style="stop-color:#FF9085"/>
							<stop  offset="1" style="stop-color:#FB6FBB"/>
						</linearGradient>
						<polygon style="opacity:0.9;fill:url(#SVGID_00000058566189882581507020000006363278815145998240_);" points="
							1223.046,1594.718 1247.381,1594.77 1247.381,1562.891 1223.046,1562.74 						"/>
						
							<linearGradient id="SVGID_00000042695345352000658540000007306501934726989219_" gradientUnits="userSpaceOnUse" x1="4735.7861" y1="1777.9388" x2="4803.0464" y2="2186.4233" gradientTransform="matrix(-1 0 0 1 5905.063 0)">
							<stop  offset="0" style="stop-color:#FF9085"/>
							<stop  offset="1" style="stop-color:#FB6FBB"/>
						</linearGradient>
						<polygon style="opacity:0.9;fill:url(#SVGID_00000042695345352000658540000007306501934726989219_);" points="
							1189.826,1594.647 1214.367,1594.699 1214.367,1562.686 1189.826,1562.534 						"/>
					</g>
				</g>
				<g>
					<defs>
						<path id="SVGID_00000129187709019172871090000005495198136682075032_" d="M1980.344,1849.694v730.778L888.57,2617.997
							c-37.046,1.282-67.247-28.72-67.247-66.981v-750.865l1121.866,13.203C1963.656,1813.576,1980.344,1829.874,1980.344,1849.694z
							"/>
					</defs>
					<clipPath id="SVGID_00000137839566508543307050000011935726096063575977_">
						<use xlink:href="#SVGID_00000129187709019172871090000005495198136682075032_"  style="overflow:visible;"/>
					</clipPath>
					
						<linearGradient id="SVGID_00000074402449814173486000000008567841926805927813_" gradientUnits="userSpaceOnUse" x1="806.2204" y1="2218.9675" x2="1970.8612" y2="2218.9675">
						<stop  offset="0" style="stop-color:#444B8C"/>
						<stop  offset="0.9964" style="stop-color:#26264F"/>
					</linearGradient>
					
						<path style="clip-path:url(#SVGID_00000137839566508543307050000011935726096063575977_);fill:url(#SVGID_00000074402449814173486000000008567841926805927813_);" d="
						M884.86,2633.009c-43.362,0.01-78.64-36.021-78.64-80.321v-747.762l1112.845,13.146c28.481,0.313,51.795,22.992,51.795,50.538
						v727.705l-1083.199,36.646C886.765,2632.993,885.757,2633.008,884.86,2633.009z"/>
					
						<linearGradient id="SVGID_00000130635784828217807620000003283812306987759802_" gradientUnits="userSpaceOnUse" x1="1377.1538" y1="2161.2344" x2="100.5833" y2="3666.6265">
						<stop  offset="0" style="stop-color:#FFC444"/>
						<stop  offset="0.9964" style="stop-color:#F36F56"/>
					</linearGradient>
					
						<path style="clip-path:url(#SVGID_00000137839566508543307050000011935726096063575977_);fill:url(#SVGID_00000130635784828217807620000003283812306987759802_);" d="
						M1955.064,1868.972v715.003c0,19.354-16.325,35.045-36.327,35.057l-1179.548,0.736c-20.79,0.013-38.438-15.97-38.438-35.717
						v-729.709c0-19.746,17.561-35.553,38.352-35.275l82.086,1.007l1097.373,13.438
						C1938.564,1833.737,1955.064,1849.65,1955.064,1868.972z"/>
					<g style="clip-path:url(#SVGID_00000137839566508543307050000011935726096063575977_);">
						<g>
							
								<linearGradient id="SVGID_00000076573637591881836210000011817421833104598926_" gradientUnits="userSpaceOnUse" x1="1970.0571" y1="1251.5555" x2="1277.3635" y2="2291.6367">
								<stop  offset="0" style="stop-color:#444B8C"/>
								<stop  offset="0.9964" style="stop-color:#26264F"/>
							</linearGradient>
							<path style="fill:url(#SVGID_00000076573637591881836210000011817421833104598926_);" d="M1444.866,2586.582
								c-16.582-50.253-13.476-104.81,8.722-153.094l25.48-56.391c6.643-14.449,9.632-30.105,9.632-45.911v-31.677
								c0-13.717-6.459-26.473-18.004-34.084l-106.85-70.587c-31.063-20.477-53.575-51.094-63.784-86.531
								c-10.224-35.49-24.614-82.621-39.985-123.229c-18.138-47.924-62.853-80.679-114.582-83.978l-36.299-2.316
								c-71.871-4.583-135.254,48.229-143.574,119.268c-7.854,67.058-20.749,144.257-41.097,188.465
								c-19.528,42.416-25.261,89.245-16.667,134.807c27.181,144.039,65.398,342.946,42.413,391.926
								c330.732,36.31,543.468,1.441,543.468,1.441L1444.866,2586.582z M1090.013,2240.037l-64.676,0.745
								c0,0,7.811-43.901,16.146-84.374c8.339-40.492,40.171-54.794,43.305-54.843l12.019-0.187L1090.013,2240.037z
								 M1177.499,2239.256l-24.142-136.265c50.946,1.294,89.913,140.713,91.494,141.216
								C1246.433,2244.708,1177.499,2239.256,1177.499,2239.256z"/>
							
								<linearGradient id="SVGID_00000155858788807518930740000013026250714275370150_" gradientUnits="userSpaceOnUse" x1="924.6713" y1="2323.95" x2="1515.1431" y2="2323.95">
								<stop  offset="0" style="stop-color:#444B8C"/>
								<stop  offset="0.9964" style="stop-color:#26264F"/>
							</linearGradient>
							<path style="fill:url(#SVGID_00000155858788807518930740000013026250714275370150_);" d="M1466.21,2586.549
								c-16.602-50.283-13.493-104.873,8.732-153.187l25.675-56.411c6.65-14.457,9.805-30.106,9.805-45.919v-31.692
								c0-13.724-6.629-26.506-18.186-34.122l-107.055-70.638c-31.098-20.489-53.682-51.13-63.903-86.587
								c-10.235-35.511-24.666-82.674-40.056-123.305c-18.159-47.952-62.941-80.729-114.731-84.029l-36.349-2.318
								c-71.958-4.584-135.42,48.258-143.749,119.341c-7.863,67.098-20.776,144.343-41.148,188.578
								c-19.552,42.441-25.292,89.298-16.687,134.887c27.214,144.125,65.475,343.151,42.463,392.16
								c331.129,36.333,544.123,1.443,544.123,1.443L1466.21,2586.549z M1110.928,2239.796l-64.754,0.746
								c0,0,7.82-43.927,16.166-84.424c8.35-40.516,40.219-54.827,43.357-54.876l12.034-0.187L1110.928,2239.796z
								 M1198.519,2239.014l-24.171-136.347c51.008,1.294,90.021,140.797,91.605,141.3
								C1267.536,2244.469,1198.519,2239.014,1198.519,2239.014z"/>
						</g>
						<g>
							<g>
								
									<linearGradient id="SVGID_00000165208320537725851510000013370604280777424002_" gradientUnits="userSpaceOnUse" x1="1280.8241" y1="1536.0975" x2="1214.3534" y2="2713.582">
									<stop  offset="0.0036" style="stop-color:#E38DDD"/>
									<stop  offset="1" style="stop-color:#9571F6"/>
								</linearGradient>
								<path style="fill:url(#SVGID_00000165208320537725851510000013370604280777424002_);" d="M1436.589,2626.805
									c27.114-18.511,84.777-63.665,110.495-140.986c40.844-122.798-18.198-268.055-133.191-334.833
									c-135.322-78.583-280.484-9.009-297.985-0.262c-99.624,49.788-141.115,135.824-164.233,183.762
									c-40.522,84.026-96.165,263.493-14.352,333.197c48.064,40.949,124.299,27.846,214.322,12.374
									c91.56-15.737,115.119-45.116,121.057-53.184c22.6-30.706,12.011-54.433,21.303-107.772
									c15.051-86.398,70.384-182.177,112.552-179.509c34.426,2.179,59.309,69.934,63.834,116.552
									c7.718,79.511-39.79,138.169-52.425,152.85C1424.171,2614.929,1430.379,2620.866,1436.589,2626.805z"/>
								
									<linearGradient id="SVGID_00000010288284705049872970000003548325341418401200_" gradientUnits="userSpaceOnUse" x1="906.442" y1="2487.71" x2="1274.3931" y2="2487.71">
									<stop  offset="0.0036" style="stop-color:#E38DDD"/>
									<stop  offset="1" style="stop-color:#9571F6"/>
								</linearGradient>
								<path style="opacity:0.4;fill:url(#SVGID_00000010288284705049872970000003548325341418401200_);" d="M1168.388,2501.874
									c-36.374-56.801,78.672-158.427,48.153-202.973c-21.504-31.388-105.231-19.449-161.848,10.409
									c-101.684,53.625-128.632,171.895-138.326,214.444c-8.072,35.426-10.578,68.933-9.787,99.464
									c6.717,17.34,16.705,32.507,30.741,44.466c48.064,40.949,124.299,27.846,214.322,12.374
									c91.56-15.737,115.119-45.116,121.057-53.184c0.591-0.802,1.146-1.597,1.692-2.391
									c-0.224-29.858-7.171-57.728-26.424-77.453C1219.387,2517.748,1185.74,2528.97,1168.388,2501.874z"/>
								
									<linearGradient id="SVGID_00000048468841841957041340000003209165788063934366_" gradientUnits="userSpaceOnUse" x1="1026.5447" y1="1525.087" x2="960.2778" y2="2698.9597">
									<stop  offset="0.0036" style="stop-color:#E38DDD"/>
									<stop  offset="1" style="stop-color:#9571F6"/>
								</linearGradient>
								<path style="fill:url(#SVGID_00000048468841841957041340000003209165788063934366_);" d="M1166.39,2633.5
									c0,0-192.613,15.106-153.865-126.246c38.835-141.667,170.189-250.862,170.189-250.862l-66.808-105.669
									c0,0-309.289,145.62-347.094,373.529c-37.723,227.411,376.011,148.85,376.011,148.85L1166.39,2633.5z"/>
								
									<linearGradient id="SVGID_00000042738931495261713490000010866349753689588353_" gradientUnits="userSpaceOnUse" x1="1258.1089" y1="2648.6726" x2="1259.2295" y2="2648.6726">
									<stop  offset="0" style="stop-color:#FFC444"/>
									<stop  offset="0.9964" style="stop-color:#F36F56"/>
								</linearGradient>
								<path style="fill:url(#SVGID_00000042738931495261713490000010866349753689588353_);" d="M1266.287,2668.334
									c0,0-11.835-39.087-30.24-48.024c-18.385-8.928-69.657,13.19-69.657,13.19s-22.952,31.716-21.566,39.602
									c1.386,7.887,42.671,9.77,57.176-4.818c14.518-14.6,34.411-16.612,42.996-4.053
									C1253.587,2676.798,1266.287,2668.334,1266.287,2668.334z"/>
								<polygon style="fill:#FFFFFF;" points="1161.725,2691.049 1249.108,2735.021 1596.443,2628.968 1595.502,2611.221 
									1485.42,2604.019 1166.39,2669.578 								"/>
								
									<linearGradient id="SVGID_00000138552260532858349260000016130255332925790368_" gradientUnits="userSpaceOnUse" x1="1166.3904" y1="2113.8325" x2="1343.8463" y2="2113.8325">
									<stop  offset="0" style="stop-color:#FFC444"/>
									<stop  offset="0.9964" style="stop-color:#F36F56"/>
								</linearGradient>
								<path style="fill:url(#SVGID_00000138552260532858349260000016130255332925790368_);" d="M1262.915,2050.802l-20.18,43.083
									c-4.174,8.911-11.982,15.686-21.447,18.612l-54.897,16.973c0,0,120.217,49.57,122.456,47.32c2.24-2.251,55-54.277,55-54.277
									l-18.093-6.206c-10.927-3.748-18.456-13.554-19.176-24.971l-2.074-32.882L1262.915,2050.802z"/>
								<g>
									<g>
										
											<linearGradient id="SVGID_00000036941251643270396850000015281299949156303806_" gradientUnits="userSpaceOnUse" x1="1836.755" y1="1947.6984" x2="1819.3641" y2="1972.5017" gradientTransform="matrix(0.9943 0.1063 -0.1063 0.9943 -246.6458 -99.2899)">
											<stop  offset="0" style="stop-color:#AA80F9"/>
											<stop  offset="0.9964" style="stop-color:#6165D7"/>
										</linearGradient>
										<path style="fill:url(#SVGID_00000036941251643270396850000015281299949156303806_);" d="M1353.15,2016.625l3.52,0.308
											c14.499,1.267,24.564,17.941,22.471,37.24l-0.117,1.083c-2.093,19.296-15.547,33.886-30.039,32.59l-3.518-0.315
											c-7.305-0.653-11.506-17.047-9.386-36.618C1338.201,2031.338,1345.842,2015.986,1353.15,2016.625z"/>
										
											<linearGradient id="SVGID_00000081637256981383422140000009994417321034188470_" gradientUnits="userSpaceOnUse" x1="1805.1017" y1="1987.0817" x2="1838.6539" y2="1918.1132" gradientTransform="matrix(0.9943 0.1063 -0.1063 0.9943 -246.6458 -99.2899)">
											<stop  offset="0" style="stop-color:#AA80F9"/>
											<stop  offset="0.9964" style="stop-color:#6165D7"/>
										</linearGradient>
										<path style="fill:url(#SVGID_00000081637256981383422140000009994417321034188470_);" d="M1327.833,2050.183
											c-2.319,21.417,4.257,39.534,15.044,40.5c10.795,0.966,21.72-15.604,24.044-37.044
											c2.325-21.444-4.836-39.619-15.635-40.562C1340.493,2012.135,1330.153,2028.763,1327.833,2050.183z"/>
										
											<linearGradient id="SVGID_00000040537247017878069020000001027907136964791442_" gradientUnits="userSpaceOnUse" x1="1829.5807" y1="1958.6561" x2="1835.2777" y2="1955.1041" gradientTransform="matrix(0.9943 0.1063 -0.1063 0.9943 -246.6458 -99.2899)">
											<stop  offset="0" style="stop-color:#444B8C"/>
											<stop  offset="0.9964" style="stop-color:#3E4177"/>
										</linearGradient>
										<polygon style="fill:url(#SVGID_00000040537247017878069020000001027907136964791442_);" points="1343.441,2090.734 
											1339.321,2090.365 1347.728,2012.767 1351.85,2013.126 										"/>
										
											<linearGradient id="SVGID_00000170988445303139255520000005731262317267365823_" gradientUnits="userSpaceOnUse" x1="1834.8202" y1="1940.1407" x2="1817.3606" y2="1960.8265" gradientTransform="matrix(0.9943 0.1063 -0.1063 0.9943 -246.6458 -99.2899)">
											<stop  offset="0" style="stop-color:#AA80F9"/>
											<stop  offset="0.9964" style="stop-color:#6165D7"/>
										</linearGradient>
										<path style="fill:url(#SVGID_00000170988445303139255520000005731262317267365823_);" d="M1323.995,2049.844
											c-2.319,21.415,4.54,39.555,15.326,40.521c10.792,0.966,21.43-15.627,23.754-37.066
											c2.324-21.441-4.549-39.59-15.347-40.532C1336.937,2011.825,1326.314,2028.426,1323.995,2049.844z"/>
										
											<linearGradient id="SVGID_00000067945234090509703720000014506702562923190973_" gradientUnits="userSpaceOnUse" x1="1799.2036" y1="1969.6976" x2="1820.5325" y2="1969.6976" gradientTransform="matrix(0.9943 0.1063 -0.1063 0.9943 -246.6458 -99.2899)">
											<stop  offset="0.0036" style="stop-color:#6165D7"/>
											<stop  offset="1" style="stop-color:#AA80F9"/>
										</linearGradient>
										<path style="opacity:0.6;fill:url(#SVGID_00000067945234090509703720000014506702562923190973_);" d="M1332.903,2050.632
											c-1.262,11.647,2.47,21.512,8.336,22.034c5.868,0.522,11.65-8.501,12.913-20.155c1.263-11.655-2.472-21.522-8.342-22.037
											C1339.942,2029.958,1334.164,2038.984,1332.903,2050.632z"/>
									</g>
									
										<linearGradient id="SVGID_00000052105991531717751630000012108889224732269713_" gradientUnits="userSpaceOnUse" x1="-9168.0195" y1="2919.6572" x2="-9166.6064" y2="2919.6572" gradientTransform="matrix(-0.9495 -0.3138 -0.3138 0.9495 8295.8398 1267.5063)">
										<stop  offset="0" style="stop-color:#311944"/>
										<stop  offset="1" style="stop-color:#A03976"/>
									</linearGradient>
									<path style="fill:url(#SVGID_00000052105991531717751630000012108889224732269713_);" d="M1345.302,2046.927
										c13.628-8.938,21.473-29.907,15.125-46.92c-5.458-14.627-19.672-21.144-28.166-25.043
										c-24.554-11.264-60.113-11.573-78.901,7.343c-11.106,11.185-6.343,43.695-5.816,49.432
										c0.601,6.488,4.508,9.962,7.285,15.653c3.847,7.896,9.826,20.41,19.466,41.239c2.753-4.249,6.492-9.397,11.444-14.679
										c1.908-2.035,9.482-9.943,18.765-15.498C1323.14,2047.29,1332.411,2055.381,1345.302,2046.927z"/>
									
										<linearGradient id="SVGID_00000067926763392417951570000017981883452581701526_" gradientUnits="userSpaceOnUse" x1="-5062.0479" y1="985.2043" x2="-5062.0479" y2="984.088" gradientTransform="matrix(0.9669 0.2551 -0.2551 0.9669 6848.7139 842.1304)">
										<stop  offset="0" style="stop-color:#FFC444"/>
										<stop  offset="0.9964" style="stop-color:#F36F56"/>
									</linearGradient>
									<path style="fill:url(#SVGID_00000067926763392417951570000017981883452581701526_);" d="M1257.41,2068.137
										c0,0,7.632,32.055,41.563,41.297c30.529,8.314,57.128-54.927,42.654-75.106c-4.823-6.724-16.959-12.895-28.296-13.552
										c-6.687-0.387-9.598,1.376-20.495,0.535c-10.037-0.771-12.308-2.635-15.869-1.299c-4.45,1.674-9.37,7.774-9.975,28.566
										c-3.771-7.454-9.833-11.868-15.388-11.288c-0.886,0.095-3.373,0.751-5.208,2.396
										C1239.766,2045.638,1243.493,2057.354,1257.41,2068.137z"/>
									
										<linearGradient id="SVGID_00000183227196013371721080000002701664453794035593_" gradientUnits="userSpaceOnUse" x1="-9148.7813" y1="2957.4709" x2="-9147.3691" y2="2957.4709" gradientTransform="matrix(-0.9495 -0.3138 -0.3138 0.9495 8295.8398 1267.5063)">
										<stop  offset="0" style="stop-color:#311944"/>
										<stop  offset="1" style="stop-color:#A03976"/>
									</linearGradient>
									<path style="fill:url(#SVGID_00000183227196013371721080000002701664453794035593_);" d="M1276.938,2015.706
										c1.081,1.514-5.061,5.223-7.881,12.436c-5.473,13.989,3.569,36.045,18.251,42.624c8.697,3.895,12.958-0.501,28.372,3.013
										c9.563,2.181,16.875,5.916,21.375,8.574c-0.66,17.23-10.423,31.306-23.738,34.832c-14.304,3.788-27.541-5.99-33.067-10.072
										c-3.693-2.729-15.526-11.436-18.442-25.542c-3.036-14.693,6.559-19.682,1.106-30.768c-2.749-5.588-7.61-9.244-10.187-19.13
										c-0.698-2.685-1.003-4.955-1.149-6.461C1261.895,2019.922,1275.373,2013.513,1276.938,2015.706z"/>
									
										<linearGradient id="SVGID_00000017478225702512354190000005683291425413626022_" gradientUnits="userSpaceOnUse" x1="6371.752" y1="268.4498" x2="6371.752" y2="267.3034" gradientTransform="matrix(-0.9495 -0.3138 -0.3138 0.9495 8295.8398 1267.5063)">
										<stop  offset="0" style="stop-color:#FFC444"/>
										<stop  offset="1" style="stop-color:#F36F56"/>
									</linearGradient>
									<path style="fill:url(#SVGID_00000017478225702512354190000005683291425413626022_);" d="M1324.193,2084.468
										c0,0-7.574,1.065-18.517-3.316c-0.531-0.213-1.181-0.262-1.342-0.015c-0.604,0.932,4.98,7.925,12.183,8.375
										c5.12,0.317,10.232-2.72,9.974-4.022C1326.38,2084.942,1325.299,2084.643,1324.193,2084.468z"/>
									<g>
										
											<linearGradient id="SVGID_00000078035692714443786160000009238503842143890581_" gradientUnits="userSpaceOnUse" x1="1718.6174" y1="1661.8583" x2="1751.6875" y2="1593.8811" gradientTransform="matrix(1.0295 0.11 -0.1166 1.0914 -281.2317 40.1212)">
											<stop  offset="0" style="stop-color:#AA80F9"/>
											<stop  offset="0.9964" style="stop-color:#6165D7"/>
										</linearGradient>
										<path style="fill:url(#SVGID_00000078035692714443786160000009238503842143890581_);" d="M1263.074,2020.684l-4.448-0.433
											l1.572-13.597c2.711-23.451,21.267-41.239,42.267-40.493l22.509,0.8c11.781,0.418,22.397,6.062,29.896,15.893
											c7.502,9.836,10.849,22.508,9.422,35.678l-1.182,10.906l-4.478-0.393l1.182-10.905c1.277-11.785-1.717-23.124-8.43-31.926
											c-6.71-8.799-16.215-13.848-26.751-14.226l-22.508-0.803c-18.619-0.664-35.073,15.106-37.477,35.899L1263.074,2020.684z"
											/>
										<g>
											
												<linearGradient id="SVGID_00000176763837884489893440000017981546869509055662_" gradientUnits="userSpaceOnUse" x1="1741.229" y1="1577.2385" x2="1734.0233" y2="1601.1552" gradientTransform="matrix(1.0295 0.11 -0.1166 1.0914 -281.2317 40.1212)">
												<stop  offset="0" style="stop-color:#AA80F9"/>
												<stop  offset="0.9964" style="stop-color:#6165D7"/>
											</linearGradient>
											<path style="fill:url(#SVGID_00000176763837884489893440000017981546869509055662_);" d="M1353.987,1994.424
												c-1.82-0.158-3.544-1.14-4.693-2.88c-5.856-8.873-14.973-14.166-25.005-14.526l-22.508-0.806
												c-7.854-0.281-15.541,2.787-21.648,8.637c-2.886,2.765-7.127,2.485-9.473-0.625c-2.346-3.11-1.909-7.872,0.976-10.638
												c8.791-8.427,19.86-12.85,31.171-12.45l22.509,0.797c14.046,0.496,26.799,7.898,34.993,20.309
												c2.17,3.287,1.463,8.035-1.58,10.604C1357.298,1994.054,1355.604,1994.565,1353.987,1994.424z"/>
											
												<linearGradient id="SVGID_00000000931163573655362630000008765712514418191807_" gradientUnits="userSpaceOnUse" x1="1741.2236" y1="1577.2561" x2="1734.0208" y2="1601.1637" gradientTransform="matrix(1.0295 0.11 -0.1166 1.0914 -281.2317 40.1212)">
												<stop  offset="0" style="stop-color:#AA80F9"/>
												<stop  offset="0.9964" style="stop-color:#6165D7"/>
											</linearGradient>
											<path style="opacity:0.3;fill:url(#SVGID_00000000931163573655362630000008765712514418191807_);" d="M1346.189,1978.296
												c-15.906-6.804-15.46-11.757-24.031-12.874c-16.016-2.087-24.348,14.332-39.756,10.741
												c-3.61-0.841-6.569-2.54-8.867-4.301c-0.643,0.555-1.277,1.128-1.898,1.724c-2.885,2.766-3.322,7.528-0.976,10.638
												c2.346,3.11,6.587,3.391,9.473,0.625c6.106-5.85,13.794-8.918,21.648-8.637l22.508,0.806
												c10.032,0.36,19.149,5.653,25.005,14.526c1.148,1.74,2.873,2.722,4.693,2.88c1.617,0.14,3.311-0.371,4.743-1.579
												c2.758-2.328,3.597-6.447,2.114-9.645C1356.541,1982.139,1351.555,1980.592,1346.189,1978.296z"/>
										</g>
									</g>
									<g>
										<g>
											
												<linearGradient id="SVGID_00000145031669719984975100000005622597679128504737_" gradientUnits="userSpaceOnUse" x1="1705.5259" y1="1970.6038" x2="1744.9951" y2="1970.6038" gradientTransform="matrix(0.9943 0.1063 -0.1063 0.9943 -246.6458 -99.2899)">
												<stop  offset="0" style="stop-color:#AA80F9"/>
												<stop  offset="0.9964" style="stop-color:#6165D7"/>
											</linearGradient>
											<path style="fill:url(#SVGID_00000145031669719984975100000005622597679128504737_);" d="M1278.966,2045.219
												c-2.339,21.623-13.042,38.362-23.901,37.39c-10.852-0.971-17.753-19.266-15.42-40.865
												c2.333-21.602,13.022-38.349,23.88-37.401C1274.388,2005.29,1281.304,2023.593,1278.966,2045.219z"/>
											
												<linearGradient id="SVGID_00000134962928547227805680000003733372351011903891_" gradientUnits="userSpaceOnUse" x1="1709.335" y1="1977.6835" x2="1677.6476" y2="1996.1198" gradientTransform="matrix(0.9943 0.1063 -0.1063 0.9943 -246.6458 -99.2899)">
												<stop  offset="0" style="stop-color:#AA80F9"/>
												<stop  offset="0.9964" style="stop-color:#6165D7"/>
											</linearGradient>
											<path style="fill:url(#SVGID_00000134962928547227805680000003733372351011903891_);" d="M1275.096,2044.877
												c-2.338,21.621-13.039,38.358-23.895,37.386c-10.85-0.971-17.75-19.264-15.417-40.861
												c2.333-21.6,13.019-38.345,23.874-37.397C1270.519,2004.953,1277.434,2023.253,1275.096,2044.877z"/>
											
												<linearGradient id="SVGID_00000020380656792254271440000003269855892279669920_" gradientUnits="userSpaceOnUse" x1="1686.8508" y1="1970.7909" x2="1730.2046" y2="1970.7909" gradientTransform="matrix(0.9943 0.1063 -0.1063 0.9943 -246.6458 -99.2899)">
												<stop  offset="0" style="stop-color:#AA80F9"/>
												<stop  offset="0.9964" style="stop-color:#6165D7"/>
											</linearGradient>
											<path style="fill:url(#SVGID_00000020380656792254271440000003269855892279669920_);" d="M1254.785,2006.992
												l-3.538-0.309c-14.559-1.272-28.052,13.447-30.149,32.871l-0.118,1.09c-2.097,19.422,7.992,36.219,22.544,37.521
												l3.536,0.316c7.347,0.657,15.036-14.817,17.17-34.565C1266.365,2024.167,1262.135,2007.634,1254.785,2006.992z"/>
										</g>
										
											<linearGradient id="SVGID_00000114787110224750177450000016188045935986080396_" gradientUnits="userSpaceOnUse" x1="1686.8522" y1="1970.5209" x2="1712.9099" y2="1970.5209" gradientTransform="matrix(0.9943 0.1063 -0.1063 0.9943 -246.6458 -99.2899)">
											<stop  offset="0" style="stop-color:#AA80F9"/>
											<stop  offset="0.9964" style="stop-color:#6165D7"/>
										</linearGradient>
										<path style="fill:url(#SVGID_00000114787110224750177450000016188045935986080396_);" d="M1247.059,2041.845
											c-1.539,14.247-8.601,25.278-15.77,24.639c-7.166-0.639-11.727-12.696-10.19-26.933
											c1.537-14.238,8.592-25.272,15.76-24.644C1244.031,2015.536,1248.599,2027.597,1247.059,2041.845z"/>
									</g>
								</g>
							</g>
							<g>
								<path style="fill:#BFC6D1;" d="M1239.191,2736.095l35.517-403.703c0.567-6.445,6.887-11.533,15.242-12.285l557.768-50.121
									c4.618-0.416,13.379,2.396,16.818,5.117c3.433,2.717,7.383,2.978,7.13,6.827l-28.438,344.862
									c-0.469,5.687-5.527,10.506-12.354,11.762l-578.76,106.542L1239.191,2736.095z"/>
								<path style="fill:#D8DEE8;" d="M1252.113,2745.096l36.837-406.023c0.581-6.42,6.873-11.489,15.182-12.244l555.616-50.524
									c4.601-0.419,9.259,0.915,12.688,3.628c3.424,2.71,5.262,6.512,5.009,10.359l-22.468,341.723
									c-0.383,5.819-5.579,10.769-12.573,11.967L1252.113,2745.096z"/>
								<path style="fill:#D8DEE8;" d="M1252.113,2745.095l590.29-101.113c6.994-1.198,12.192-6.148,12.573-11.967l6.734-102.403
									c-165.925,77.146-384.813,89.474-601.371,124.82L1252.113,2745.095z"/>
								<path style="fill:#FFFFFF;" d="M1556.832,2786.969l-20.969,9.737c0,0-100.464-50.08-106.583-53.135
									c-0.973-0.485-5.164-5.605,0.045-7.004c27.453-7.375,130.243-20.504,130.243-20.504l51.917,28.166L1556.832,2786.969z"/>
								<path style="fill:#BFC6D1;" d="M1556.906,2780.111l-20.974,9.722c0,0-100.487-50.203-106.607-53.266
									c-6.131-3.069,130.318-27.392,130.318-27.392l51.928,28.23L1556.906,2780.111z"/>
								<path style="fill:#FFFFFF;" d="M1662.201,2494.486c0,0,44.733,246.781,49.55,260.561
									c4.436,12.692-133.728,39.01-167.546,43.449c-2.827,0.372-7.022-1.148-8.342-1.789
									c-9.707-0.124,38.556-291.416,38.556-291.416l3.303-0.148L1662.201,2494.486z"/>
								
									<linearGradient id="SVGID_00000047764275214244046760000010150287124901066376_" gradientUnits="userSpaceOnUse" x1="1543.2192" y1="2646.4124" x2="1720.1993" y2="2646.4124">
									<stop  offset="0.494" style="stop-color:#EBEFF2"/>
									<stop  offset="1" style="stop-color:#FFFFFF"/>
								</linearGradient>
								<path style="fill:url(#SVGID_00000047764275214244046760000010150287124901066376_);" d="M1662.201,2494.486
									c0,0,53.096,248.449,57.897,262.208c4.789,13.726-160.531,40.678-175.452,41.645
									c-9.679-0.122,33.076-293.197,33.076-293.197L1662.201,2494.486z"/>
							</g>
						</g>
					</g>
				</g>
				<path style="opacity:0.9;fill:#FFFFFF;" d="M1736.292,1823.263l8.598,320.894c0.97,36.207,42.351,55.084,69.831,31.807
					l243.289-181.381c24.551-20.784,19.645-60.169-9.139-73.41l-251.822-139.572
					C1768.261,1768.371,1735.426,1790.908,1736.292,1823.263z"/>
				<path style="fill:#FFFFFF;" d="M2479.561,1865.501c0,15.738,18.213,52.911,31.085,77.226c5.363,10.131,19.5,10.629,24.889,0.846
					c12.996-23.59,31.531-60.035,31.531-75.948c0-24.557-19.758-44.832-43.995-45.284
					C2498.981,1821.89,2479.561,1841.215,2479.561,1865.501z M2499.65,1865.988c0-13.073,10.469-23.447,23.421-23.172
					c12.995,0.276,23.561,11.162,23.561,24.313c0,13.151-10.566,23.523-23.561,23.169
					C2510.118,1889.944,2499.65,1879.061,2499.65,1865.988z"/>
			</g>
		</g>
		<g>
			<path style="fill:#D8DEE8;" d="M2675.02,2462.821c0,14.58-11.831,26.784-26.403,27.242l-1705.304,53.561
				c-13.904,0.437-25.183-10.761-25.183-24.995c0-7.116,2.819-13.636,7.386-18.458c4.566-4.824,10.846-7.914,17.797-8.137
				l1705.304-54.777C2663.189,2436.788,2675.02,2448.241,2675.02,2462.821z"/>
			
				<linearGradient id="SVGID_00000048472448532704721610000001547031583903254667_" gradientUnits="userSpaceOnUse" x1="918.0979" y1="2501.9993" x2="1928.9509" y2="2501.9993">
				<stop  offset="0" style="stop-color:#FF9085"/>
				<stop  offset="1" style="stop-color:#FB6FBB"/>
			</linearGradient>
			<path style="fill:url(#SVGID_00000048472448532704721610000001547031583903254667_);" d="M1928.951,2460.365v52.295
				l-985.7,30.962c-13.904,0.437-25.153-10.76-25.153-24.994c0-7.116,2.835-13.636,7.402-18.458
				c4.566-4.824,10.792-7.917,17.744-8.14L1928.951,2460.365z"/>
			
				<linearGradient id="SVGID_00000121244459392163065100000015359484675284246433_" gradientUnits="userSpaceOnUse" x1="1903.5056" y1="2478.4756" x2="1845.5551" y2="2509.7368">
				<stop  offset="0" style="stop-color:#444B8C"/>
				<stop  offset="0.9964" style="stop-color:#26264F"/>
			</linearGradient>
			<path style="fill:url(#SVGID_00000121244459392163065100000015359484675284246433_);" d="M1949.58,2487.602
				c0,23.118-18.281,42.426-41.153,43.138l-17.725,0.536c-22.841,0.712-40.827-17.449-40.827-40.524v-17.409
				c0-23.074,18.405-42.375,41.241-43.118l17.132-0.568c22.87-0.744,41.331,17.386,41.331,40.503V2487.602z"/>
		</g>
		<g>
			
				<linearGradient id="SVGID_00000084496779907526226700000011776054321367138202_" gradientUnits="userSpaceOnUse" x1="1545.6389" y1="2007.9777" x2="1310.7738" y2="3134.0396" gradientTransform="matrix(-1 0 0 1 4299.5825 0)">
				<stop  offset="0" style="stop-color:#FF9085"/>
				<stop  offset="1" style="stop-color:#FB6FBB"/>
			</linearGradient>
			<path style="fill:url(#SVGID_00000084496779907526226700000011776054321367138202_);" d="M2701.518,2330.808
				c-20.433-21.816,36.134-103.777,66.41-139.69c26.45-31.375,53.636-63.623,87.02-59.54c29.311,3.585,57.832,34.495,59.54,64.12
				C2919.085,2275.394,2730.567,2361.822,2701.518,2330.808z"/>
			
				<linearGradient id="SVGID_00000024002617726116601850000013757856798774695557_" gradientUnits="userSpaceOnUse" x1="880.6126" y1="3194.4797" x2="950.9506" y2="3194.4797" gradientTransform="matrix(0.9996 0.0289 -0.0289 0.9996 2093.9072 -31.2392)">
				<stop  offset="0" style="stop-color:#444B8C"/>
				<stop  offset="0.9964" style="stop-color:#26264F"/>
			</linearGradient>
			<path style="fill:url(#SVGID_00000024002617726116601850000013757856798774695557_);" d="M2946.857,3173.023
				c3.846,3.126,4.554,10.934,5.016,16.038c0.208,2.28,0.31,3.42,0.056,4.225c-1.858,5.874-13.25,6.491-31.114,8.317
				c-28.229,2.884-36.63,5.106-38.839,0.905c-2.071-3.937,2.94-10.383,3.504-11.094c3.033-3.821,6.756-5.211,13.954-7.58
				c13.318-4.384,22.317-6.784,25.042-7.51C2941.489,3171.782,2944.331,3170.97,2946.857,3173.023z"/>
			
				<linearGradient id="SVGID_00000055695586199008137780000015511620591557963673_" gradientUnits="userSpaceOnUse" x1="2927.2434" y1="3165.2163" x2="2952.4604" y2="3165.2163">
				<stop  offset="0" style="stop-color:#FFC444"/>
				<stop  offset="0.9964" style="stop-color:#F36F56"/>
			</linearGradient>
			<path style="fill:url(#SVGID_00000055695586199008137780000015511620591557963673_);" d="M2930.069,3147.234l-2.825,32.169
				c0.802,1.553,10.364,6.213,17.958,2.217l7.259-31.62L2930.069,3147.234z"/>
			
				<linearGradient id="SVGID_00000180348981742207135780000002833114276205086899_" gradientUnits="userSpaceOnUse" x1="1449.0295" y1="3207.6655" x2="1523.7592" y2="3207.6655" gradientTransform="matrix(0.9642 0.2651 -0.2651 0.9642 2106.7324 -308.9189)">
				<stop  offset="0" style="stop-color:#444B8C"/>
				<stop  offset="0.9964" style="stop-color:#26264F"/>
			</linearGradient>
			<path style="fill:url(#SVGID_00000180348981742207135780000002833114276205086899_);" d="M2722.978,3168.889
				c4.61,5.091,5.66,14.465,1.652,19.084c-3.941,4.541-9.866,1.135-26.67,1.637c-18,0.538-22.7,4.789-34.932,1.414
				c-4.941-1.366-13.669-4.679-13.503-8.208c0.116-2.482,4.56-3.763,19.4-8.735c21.066-7.056,20.973-7.442,25.446-8.183
				C2705.607,3164.037,2716.89,3162.167,2722.978,3168.889z"/>
			
				<linearGradient id="SVGID_00000144324479966583559660000011356303917925663664_" gradientUnits="userSpaceOnUse" x1="2702.4172" y1="3156.8909" x2="2733.5623" y2="3156.8909">
				<stop  offset="0" style="stop-color:#FFC444"/>
				<stop  offset="0.9964" style="stop-color:#F36F56"/>
			</linearGradient>
			<path style="fill:url(#SVGID_00000144324479966583559660000011356303917925663664_);" d="M2711.445,3139.531l-9.028,30.031
				c0.682,1.611,9.86,6.984,17.737,3.581l13.408-29.148L2711.445,3139.531z"/>
			
				<linearGradient id="SVGID_00000116198823153807139820000010378056805737710248_" gradientUnits="userSpaceOnUse" x1="1347.8717" y1="2819.6895" x2="1596.8149" y2="2819.6895" gradientTransform="matrix(-1 0 0 1 4299.5825 0)">
				<stop  offset="0" style="stop-color:#AA80F9"/>
				<stop  offset="0.9964" style="stop-color:#6165D7"/>
			</linearGradient>
			<path style="fill:url(#SVGID_00000116198823153807139820000010378056805737710248_);" d="M2791.661,2481.808
				c-1.293,100.927-8.18,214.407-24.706,337.696c-16.332,121.853-39.22,231.952-64.188,328.769
				c11.519,3.099,23.038,6.198,34.556,9.297c29.223-27.249,66.088-70.144,83.876-130.761c11.04-37.622,7.361-56.956,14.364-103.23
				c11.15-73.68,33.736-112.282,57.08-171.698c20.977-53.39,45.773-131.747,59.068-236.484
				C2898.361,2504.202,2845.01,2493.004,2791.661,2481.808z"/>
			
				<linearGradient id="SVGID_00000181779141618508385160000016018932668749530772_" gradientUnits="userSpaceOnUse" x1="1228.126" y1="2818.0801" x2="1403.946" y2="2818.0801" gradientTransform="matrix(-1 0 0 1 4299.5825 0)">
				<stop  offset="0" style="stop-color:#AA80F9"/>
				<stop  offset="0.9964" style="stop-color:#6165D7"/>
			</linearGradient>
			<path style="fill:url(#SVGID_00000181779141618508385160000016018932668749530772_);" d="M2895.637,2472.177
				c7.05,128.362,12.848,259.113,17.242,392.18c3.298,99.853,5.719,198.44,7.329,295.729c11.766,1.453,23.532,2.906,35.299,4.358
				c11.369-21.167,26.47-53.53,36.814-95.009c12.564-50.377,9.655-80.294,15.165-132.506c6.182-58.56,15.162-71.318,31.069-145.191
				c32.286-149.922,48.43-224.884,12.414-271.514C3039.278,2505.086,3002.627,2467.113,2895.637,2472.177z"/>
			
				<linearGradient id="SVGID_00000124135917689729162880000001127972962488197563_" gradientUnits="userSpaceOnUse" x1="1464.3164" y1="1991.0159" x2="1229.4518" y2="3117.0754" gradientTransform="matrix(-1 0 0 1 4299.5825 0)">
				<stop  offset="0" style="stop-color:#FF9085"/>
				<stop  offset="1" style="stop-color:#FB6FBB"/>
			</linearGradient>
			<path style="fill:url(#SVGID_00000124135917689729162880000001127972962488197563_);" d="M3067.118,2149.569
				c-27.555-7.749-67.938-16.81-117.396-19.606c-70.539-3.987-105.81-5.98-130.803,10.817
				c-57.725,38.798-13.034,128.343-36.664,350.317c-3.375,31.699-4.132,63.625-6.575,95.409
				c-4.047,52.626-4.968,55.484-1.306,60.817c22.963,33.441,108.633-16.999,234.201,2.939
				c70.258,11.156,102.122,36.858,121.37,18.32c22.447-21.619,3.192-79.766-13.382-129.822
				c-19.026-57.457-30.779-58.196-41.578-101.468c-11.288-45.228-4.46-68.516-2.703-139.838
				C3073.124,2263.328,3072.945,2212.54,3067.118,2149.569z"/>
			<g style="opacity:0.3;">
				
					<linearGradient id="SVGID_00000085930024894847085270000005535321195213528213_" gradientUnits="userSpaceOnUse" x1="1262.3345" y1="2954.063" x2="1351.4709" y2="2530.6663" gradientTransform="matrix(-1 0 0 1 4299.5825 0)">
					<stop  offset="0" style="stop-color:#FF9085"/>
					<stop  offset="1" style="stop-color:#FB6FBB"/>
				</linearGradient>
				<path style="fill:url(#SVGID_00000085930024894847085270000005535321195213528213_);" d="M2896.365,2566.296
					c32.819-2.568,54.11,15.987,82.44,1.527c38.847-19.828,51.329-81.522,48.854-125.187c-3.761-66.342-41.644-83.83-35.114-126.713
					c3.531-23.191,20.089-53.981,79.537-85.438c0.793,26.475,0.642,49.042,0.2,66.97c-1.758,71.322-8.585,94.61,2.703,139.838
					c10.799,43.272,22.552,44.011,41.578,101.468c16.574,50.056,35.829,108.203,13.382,129.822
					c-19.248,18.538-51.112-7.164-121.37-18.32c-108.196-17.18-186.727,17.847-221.087,6.488
					C2829.008,2588.14,2866.667,2568.62,2896.365,2566.296z"/>
			</g>
			
				<linearGradient id="SVGID_00000105407603210366625030000017870854658604364955_" gradientUnits="userSpaceOnUse" x1="1303.4252" y1="1957.4586" x2="1068.5604" y2="3083.5188" gradientTransform="matrix(-1 0 0 1 4299.5825 0)">
				<stop  offset="0" style="stop-color:#FF9085"/>
				<stop  offset="1" style="stop-color:#FB6FBB"/>
			</linearGradient>
			<path style="fill:url(#SVGID_00000105407603210366625030000017870854658604364955_);" d="M3022.351,2154.124
				c23.439-19.259,70.57,2.542,83.168,8.369c70.257,32.498,133.337,120.07,117.707,212.616c-2.344,13.88-13.213,78.8-68.186,110.256
				c-49.602,28.383-116.579,21.083-170.242-19.117c-7.333-6.508-14.668-13.014-22.002-19.522
				c-7.214-7.799-14.431-15.597-21.645-23.397c11.342-9.434,30.612-23.043,57.676-31.776c35.682-11.514,61.659,9.146,78.214-6.561
				c11.426-10.84,11.451-29.986,8.63-41.59c-5.687-23.387-26.302-29.964-43.51-46.563
				C3001.734,2257.84,2994.286,2177.184,3022.351,2154.124z"/>
			<g>
				
					<linearGradient id="SVGID_00000038371488291418175360000009046501581249131934_" gradientUnits="userSpaceOnUse" x1="1503.6595" y1="2586.1343" x2="1465.6541" y2="2478.4519" gradientTransform="matrix(-1 0 0 1 4299.5825 0)">
					<stop  offset="0" style="stop-color:#311944"/>
					<stop  offset="1" style="stop-color:#893976"/>
				</linearGradient>
				<polygon style="fill:url(#SVGID_00000038371488291418175360000009046501581249131934_);" points="2685.506,2456.246 
					2999.681,2451.556 2916.137,2491.876 2684.702,2476.729 				"/>
				
					<linearGradient id="SVGID_00000045591637804295233680000003791093008706663822_" gradientUnits="userSpaceOnUse" x1="1337.6305" y1="2430.1191" x2="1351.5659" y2="2526.3999" gradientTransform="matrix(-1 0 0 1 4299.5825 0)">
					<stop  offset="0" style="stop-color:#311944"/>
					<stop  offset="1" style="stop-color:#893976"/>
				</linearGradient>
				<path style="fill:url(#SVGID_00000045591637804295233680000003791093008706663822_);" d="M3010.769,2459.905v0.001
					c0,5.879-3.679,11.131-9.205,13.141l-100.389,39.356l-0.458-27.285l98.964-33.562
					C3005.235,2449.96,3010.769,2454.128,3010.769,2459.905z"/>
			</g>
			
				<linearGradient id="SVGID_00000124144291682404717100000012343888812390428575_" gradientUnits="userSpaceOnUse" x1="2883.8496" y1="2445.2327" x2="2962.6084" y2="2445.2327">
				<stop  offset="0" style="stop-color:#FFC444"/>
				<stop  offset="0.9964" style="stop-color:#F36F56"/>
			</linearGradient>
			<path style="fill:url(#SVGID_00000124144291682404717100000012343888812390428575_);" d="M2962.392,2441.316
				c1.928-0.43-9.394-22.99-18.282-20.386c-8.886,2.604-52.357,27.797-56.308,38.17c-3.952,10.373-3.952,10.373-3.952,10.373
				s18.962,1.482,30.722-2.469C2926.332,2463.052,2946.712,2444.812,2962.392,2441.316z"/>
			<g>
				<g>
					
						<linearGradient id="SVGID_00000110459207927612156860000007499808169150256035_" gradientUnits="userSpaceOnUse" x1="1613.7528" y1="2438.552" x2="1539.6559" y2="2333.3345" gradientTransform="matrix(-1 0 0 1 4299.5825 0)">
						<stop  offset="0" style="stop-color:#444B8C"/>
						<stop  offset="0.9964" style="stop-color:#26264F"/>
					</linearGradient>
					<path style="fill:url(#SVGID_00000110459207927612156860000007499808169150256035_);" d="M2892.383,2293.679l22.146,201.636
						c0.764,6.958-8.976,17.323-15.968,16.992l-324.874-19.944c-5.339-0.254-9.784-4.182-10.687-9.449l-40.776-194.746
						c-1.217-7.087,11.523-14.406,18.711-14.206l340.447,9.573C2887.068,2283.697,2891.763,2288.025,2892.383,2293.679z"/>
					
						<linearGradient id="SVGID_00000026858104680111262710000003627969233527226258_" gradientUnits="userSpaceOnUse" x1="1471.6217" y1="2612.6851" x2="1633.7792" y2="2283.3032" gradientTransform="matrix(-1 0 0 1 4299.5825 0)">
						<stop  offset="0" style="stop-color:#311944"/>
						<stop  offset="1" style="stop-color:#893976"/>
					</linearGradient>
					<path style="fill:url(#SVGID_00000026858104680111262710000003627969233527226258_);" d="M2884.958,2299.558l22.146,201.638
						c0.764,6.958-4.869,12.951-11.86,12.621l-328.983-15.574c-5.337-0.253-9.782-4.182-10.687-9.449l-33.611-195.636
						c-1.217-7.089,4.357-13.517,11.545-13.315l340.448,9.573C2879.642,2289.575,2884.339,2293.905,2884.958,2299.558z"/>
				</g>
				
					<linearGradient id="SVGID_00000175289624818054488380000001575236013287883430_" gradientUnits="userSpaceOnUse" x1="1392.4092" y1="2401.2769" x2="1748.6464" y2="2401.2769" gradientTransform="matrix(-1 0 0 1 4299.5825 0)">
					<stop  offset="0" style="stop-color:#311944"/>
					<stop  offset="1" style="stop-color:#893976"/>
				</linearGradient>
				<path style="opacity:0.3;fill:url(#SVGID_00000175289624818054488380000001575236013287883430_);" d="M2691.78,2450.994
					c28.726-12.175,18.587-35.392,52.508-64.323c44.75-38.166,90.362-21.614,106.33-51.196c4.972-9.214,7.348-23.55-1.314-46.753
					l24.653,0.693c5.685,0.159,10.382,4.489,11.001,10.142l22.146,201.638c0.763,6.956-4.87,12.951-11.86,12.621l-328.983-15.574
					c-5.337-0.253-9.782-4.182-10.687-9.449l-4.638-26.996c9.982-5.555,21.91-10.606,35.827-13.429
					C2635.028,2438.579,2658.708,2465.011,2691.78,2450.994z"/>
			</g>
			
				<linearGradient id="SVGID_00000064353610534433822540000018267783766006864769_" gradientUnits="userSpaceOnUse" x1="2545.4021" y1="2485.5198" x2="2598.5352" y2="2485.5198">
				<stop  offset="0" style="stop-color:#FFC444"/>
				<stop  offset="0.9964" style="stop-color:#F36F56"/>
			</linearGradient>
			<path style="fill:url(#SVGID_00000064353610534433822540000018267783766006864769_);" d="M2545.536,2470.041
				c-0.535-1.624,0.599-3.298,2.308-3.385c6.953-0.354,23.079-0.499,31.982,4.953c11.565,7.084,26.519,20.01,13.926,26.532
				l-11.759,6.092c-0.54,0.28-1.128,0.366-1.721,0.237c-4.178-0.919-21.764-4.82-23.688-5.789
				C2554.832,2497.8,2548.127,2477.902,2545.536,2470.041z"/>
			<g>
				
					<linearGradient id="SVGID_00000012467482748574336520000015658309864763545239_" gradientUnits="userSpaceOnUse" x1="2872.1848" y1="2111.7983" x2="3013.0808" y2="2111.7983">
					<stop  offset="0" style="stop-color:#FFC444"/>
					<stop  offset="0.9964" style="stop-color:#F36F56"/>
				</linearGradient>
				<path style="fill:url(#SVGID_00000012467482748574336520000015658309864763545239_);" d="M2944.455,2052.896
					c-0.175,20.912,2.158,37.497,4.365,48.855c2.528,13.014,4.35,16.375,6.675,19.104c3.5,4.106,8.803,7.551,38.77,14.982
					c16.307,4.042,18.405,3.933,18.766,5.551c1.756,7.894-42.71,34.8-88.65,28.315c-28.116-3.968-53.698-20.009-52.127-28.433
					c1.581-8.477,29.665-3.928,38.036-19.265c5.823-10.669-0.704-25.815-8.42-38.359
					C2909.343,2069.644,2936.983,2066.897,2944.455,2052.896z"/>
				<g>
					
						<linearGradient id="SVGID_00000039096218112465782000000009854569150486534312_" gradientUnits="userSpaceOnUse" x1="717.2927" y1="1993.6292" x2="664.1012" y2="1858.5323" gradientTransform="matrix(1 0.0037 -0.0037 1 2260.5579 162.9159)">
						<stop  offset="0" style="stop-color:#311944"/>
						<stop  offset="1" style="stop-color:#6B3976"/>
					</linearGradient>
					<path style="fill:url(#SVGID_00000039096218112465782000000009854569150486534312_);" d="M2892.271,2061.164
						c-6.635-8.814-7.045-24.203,0.601-33.93c6.579-8.37,16.933-9.563,23.132-10.281c17.962-2.074,40.626,5.425,48.509,21.956
						c4.671,9.797-5.434,30.154-7.015,33.813c-1.792,4.138-5.04,5.558-8.046,8.686c-4.165,4.339-10.685,11.239-21.328,22.777
						c-0.827-3.405-2.084-7.62-4.082-12.188c-0.769-1.759-3.857-8.627-8.53-14.322
						C2906.152,2066.26,2898.561,2069.517,2892.271,2061.164z"/>
					
						<linearGradient id="SVGID_00000034811509391757043140000005889155951924860035_" gradientUnits="userSpaceOnUse" x1="2922.512" y1="2057.8474" x2="2927.6689" y2="2211.7026">
						<stop  offset="0" style="stop-color:#FFC444"/>
						<stop  offset="0.9964" style="stop-color:#F36F56"/>
					</linearGradient>
					<path style="fill:url(#SVGID_00000034811509391757043140000005889155951924860035_);" d="M2943.305,2094.483
						c0,0-11.808,19.372-35.319,17.843c-21.05-1.37-24.133-48.576-10.688-58.593c4.486-3.341,13.469-4.729,20.773-2.683
						c4.314,1.209,5.776,3.002,12.863,4.84c6.539,1.697,8.384,0.972,10.358,2.632c2.468,2.078,4.277,7.171,0.154,20.971
						c4.017-4.066,8.837-5.627,12.253-4.014c0.544,0.259,1.99,1.241,2.803,2.731
						C2959.446,2083.601,2954.521,2090.487,2943.305,2094.483z"/>
				</g>
			</g>
		</g>
	</g>
</g>
</svg>
